<?xml version="1.0" standalone="no"?>
<!DOCTYPE svg PUBLIC "-//W3C//DTD SVG 20010904//EN"
 "http://www.w3.org/TR/2001/REC-SVG-20010904/DTD/svg10.dtd">
<svg version="1.0" xmlns="http://www.w3.org/2000/svg"
 width="704.000000pt" height="1024.000000pt" viewBox="0 0 704.000000 1024.000000"
 preserveAspectRatio="xMidYMid meet">

<g transform="translate(0.000000,1024.000000) scale(0.100000,-0.100000)"
fill="#000000" stroke="none">
<path d="M0 8291 l0 -1949 76 -7 c55 -5 79 -4 84 5 5 9 29 10 84 5 66 -6 76
-5 76 9 0 12 -10 16 -40 16 -24 0 -40 5 -40 12 0 8 31 10 113 6 61 -2 153 -2
202 2 50 4 71 7 48 8 -36 2 -43 5 -43 22 0 17 7 20 40 20 29 0 40 -4 40 -15 0
-11 11 -15 40 -15 29 0 40 4 40 15 0 18 19 19 126 5 49 -7 103 -8 142 -2 34 5
62 5 62 0 0 -4 5 -8 10 -8 6 0 10 9 10 20 0 11 5 20 11 20 7 0 9 -11 6 -29 -5
-26 -3 -29 13 -26 14 3 20 -2 20 -16 0 -10 4 -19 10 -19 5 0 3 17 -5 39 -19
54 -35 84 -42 77 -8 -8 -33 13 -33 27 0 6 7 2 15 -9 28 -36 17 10 -20 87 -30
63 -35 84 -35 145 0 86 31 244 62 317 12 28 42 86 65 127 26 47 45 95 49 125
9 67 105 258 158 315 24 25 51 69 62 99 22 63 106 160 189 216 59 41 54 34
148 235 28 60 51 91 118 156 46 45 112 101 147 124 71 48 363 168 431 177 25
3 56 17 74 32 l31 26 -19 -27 c-13 -17 -37 -31 -67 -39 -26 -7 -45 -16 -43
-20 5 -7 -33 -24 -77 -35 -36 -8 -108 -76 -108 -102 0 -12 14 -37 31 -56 l30
-35 -93 -43 c-153 -71 -213 -103 -213 -115 0 -6 -4 -15 -9 -20 -5 -5 -6 -3 -2
5 14 24 -12 11 -58 -29 -57 -50 -109 -125 -166 -238 -35 -71 -70 -162 -70
-181 1 -3 10 6 20 19 26 31 26 17 0 -16 -11 -14 -20 -21 -20 -15 0 6 -28 -8
-62 -32 -69 -47 -132 -121 -123 -144 6 -15 -40 -102 -54 -102 -19 0 -119 -150
-141 -210 -13 -36 -30 -78 -38 -94 l-15 -30 27 17 c14 10 26 14 26 9 0 -12
-102 -97 -113 -94 -5 2 -7 -4 -4 -12 4 -10 1 -13 -9 -9 -10 4 -12 0 -7 -13 5
-13 3 -16 -10 -11 -30 11 -18 -17 16 -39 41 -26 39 -53 -14 -149 -37 -68 -47
-104 -32 -118 3 -4 12 -2 20 4 7 6 13 8 13 3 0 -4 16 9 35 30 37 40 57 97 58
158 0 29 4 38 21 42 11 3 35 26 51 51 38 58 81 85 136 87 67 2 129 -11 129
-28 0 -10 8 -7 24 10 29 32 34 32 34 2 -1 -14 8 -44 19 -68 11 -24 26 -58 33
-76 7 -19 19 -39 25 -46 7 -7 27 -43 46 -82 18 -38 37 -72 42 -75 13 -9 1 -38
-19 -46 -9 -3 -53 6 -98 20 -92 30 -186 56 -232 64 -25 4 -35 0 -47 -18 -9
-13 -13 -27 -8 -33 10 -14 59 -171 65 -211 12 -76 31 -106 74 -119 12 -4 22
-11 22 -15 0 -5 35 -18 78 -30 42 -12 83 -24 90 -27 7 -2 10 -9 6 -15 -4 -8
-9 -7 -14 2 -7 10 -12 10 -23 1 -11 -9 -22 -10 -42 -2 -15 6 -31 8 -36 4 -17
-10 -127 25 -151 48 -32 31 -108 144 -108 161 0 29 -22 77 -36 77 -7 0 -32
-18 -55 -40 l-41 -39 4 -68 c4 -86 41 -147 108 -181 39 -20 58 -23 152 -21
123 2 269 29 336 62 63 32 64 45 2 45 -37 1 -64 8 -96 27 -43 25 -57 56 -34
70 6 4 8 10 5 15 -6 10 35 41 46 34 4 -2 10 0 13 5 3 5 15 7 26 4 15 -4 20
-14 20 -37 0 -44 10 -54 57 -59 l41 -4 -4 46 c-10 136 -13 124 26 134 23 6 65
5 121 -2 104 -13 132 -14 125 -2 -3 5 -31 12 -62 16 -80 10 -154 33 -189 60
-20 15 -40 47 -59 96 -35 90 -53 119 -75 119 -24 1 -91 113 -91 153 0 19 -11
55 -24 81 -20 40 -22 52 -14 87 20 77 98 110 296 125 63 4 89 10 80 16 -10 8
-10 9 2 5 9 -2 26 -38 41 -83 48 -146 94 -230 161 -301 74 -76 102 -93 159
-93 30 0 50 7 73 27 31 26 31 26 34 4 5 -33 -25 -111 -62 -161 -38 -52 -211
-177 -271 -196 -29 -9 -34 -13 -16 -13 34 -1 101 -23 101 -33 0 -13 -67 -9
-132 8 -33 8 -61 14 -63 12 -1 -2 -19 -28 -39 -60 -35 -55 -89 -107 -154 -146
l-33 -19 58 -33 c41 -24 77 -35 126 -40 37 -4 71 -10 74 -13 3 -4 -50 -6 -118
-6 -100 0 -126 -3 -135 -16 -10 -13 -15 -10 -38 20 -15 19 -31 33 -37 30 -5
-3 -6 1 -3 9 8 20 9 20 43 -5 16 -12 34 -20 40 -18 6 2 -5 14 -23 27 -33 23
-34 23 -94 6 l-60 -17 27 -49 c15 -27 34 -57 42 -67 8 -9 21 -30 30 -46 16
-27 49 -44 49 -24 0 14 62 69 72 63 4 -3 7 0 6 7 -5 20 69 37 159 38 75 1 204
14 263 27 20 4 23 3 13 -7 -7 -7 -13 -21 -13 -31 0 -25 -15 -23 -29 5 l-12 22
5 -23 c2 -12 -2 -25 -8 -30 -7 -4 -16 -14 -19 -22 -4 -11 -6 -11 -6 4 -1 12
-6 16 -17 12 -9 -3 -20 -6 -25 -6 -5 0 -9 -7 -9 -15 0 -9 -11 -21 -25 -27 -14
-6 -25 -15 -25 -21 0 -5 -13 -7 -30 -5 -16 3 -30 3 -30 0 0 -2 22 -25 49 -51
43 -39 57 -46 97 -49 65 -4 94 -21 37 -22 -24 0 -43 -4 -43 -10 0 -5 -8 -10
-17 -10 -26 0 -2 -19 43 -35 46 -16 54 -30 19 -39 -36 -9 -297 5 -312 17 -20
15 -15 -11 10 -63 15 -29 31 -46 47 -51 l25 -6 -25 -11 c-38 -17 -13 -13 75 9
64 17 122 22 295 26 l215 5 48 -33 c35 -23 45 -34 35 -40 -18 -10 -158 -30
-246 -35 -73 -4 -223 -33 -277 -54 -15 -6 -43 -12 -62 -15 -20 -2 -52 -7 -72
-9 -20 -3 -119 -10 -221 -16 -181 -12 -326 -35 -397 -65 -51 -22 -35 -28 21
-9 62 21 71 11 9 -11 -88 -32 -168 -73 -200 -104 -55 -51 -43 -121 43 -268 10
-18 23 -33 28 -33 14 0 -4 72 -30 116 -13 22 -24 53 -24 68 0 33 30 48 147 70
44 8 137 30 205 48 108 28 139 32 258 32 133 1 230 -9 230 -22 0 -4 -14 -15
-32 -25 -19 -11 -28 -21 -22 -27 18 -18 104 -23 160 -10 38 9 60 10 76 3 22
-10 22 -10 -9 -17 -18 -4 -35 -12 -38 -17 -4 -5 6 -4 21 1 50 19 33 5 -35 -31
-37 -19 -66 -40 -63 -47 2 -7 -1 -12 -7 -12 -6 0 -20 -9 -30 -19 -26 -26 -245
-137 -286 -145 -24 -5 -83 -35 -89 -45 -4 -6 -12 -9 -17 -6 -5 4 -9 2 -9 -3 0
-6 -16 -13 -35 -16 -19 -4 -35 -11 -35 -15 0 -4 -10 -13 -22 -20 -13 -6 -15
-9 -6 -7 13 4 18 -4 24 -40 3 -24 11 -44 16 -44 6 0 0 -8 -12 -18 -19 -16 -22
-24 -16 -56 4 -20 10 -35 14 -32 4 2 8 -8 8 -22 1 -15 -1 -21 -3 -14 -3 6 -9
10 -14 7 -5 -4 -6 2 -2 11 4 11 3 15 -5 10 -6 -3 -18 4 -28 16 -14 20 -15 20
-9 3 4 -11 10 -28 12 -37 3 -10 10 -18 15 -18 5 0 6 -5 3 -10 -3 -6 -1 -10 4
-10 6 0 10 -3 9 -7 -3 -11 54 -113 63 -113 4 0 12 -13 18 -30 5 -16 15 -30 20
-30 6 0 11 -6 11 -13 0 -7 14 -23 30 -35 17 -13 30 -30 30 -39 0 -14 -2 -14
-15 3 -11 14 -14 15 -15 4 0 -10 -7 -7 -20 10 -11 14 -20 20 -20 13 0 -7 -19
5 -42 27 l-42 38 -28 -55 c-30 -59 -30 -58 15 -107 9 -11 17 -28 17 -37 0 -10
5 -21 10 -24 6 -3 10 -1 10 5 0 6 5 8 10 5 6 -3 10 -11 10 -16 0 -6 -4 -7 -10
-4 -5 3 -10 1 -10 -5 0 -6 -4 -9 -9 -6 -5 4 -6 -4 -3 -16 5 -20 7 -21 10 -4 3
14 9 8 23 -24 24 -54 24 -63 -1 -25 -11 17 -20 24 -20 17 0 -8 -7 -6 -21 7
l-21 20 -25 -47 c-14 -26 -29 -51 -33 -56 -6 -5 3 -24 21 -45 49 -59 50 -61
41 -61 -5 0 -20 10 -34 23 -136 123 -124 106 -132 189 -9 99 9 181 73 344 45
115 49 129 37 153 -23 45 -39 103 -30 110 5 3 17 23 26 44 18 37 13 48 -10 25
-7 -7 -12 -9 -12 -5 0 4 -16 -2 -36 -13 -19 -11 -32 -15 -28 -8 5 7 -7 1 -25
-15 -18 -15 -45 -30 -59 -33 -15 -3 -35 -9 -44 -15 -27 -14 -30 -11 -23 23 7
33 7 33 -14 -6 -11 -22 -19 -41 -17 -43 2 -2 23 3 47 11 24 8 45 13 47 11 11
-11 -123 -595 -173 -750 -24 -77 -45 -144 -45 -148 0 -4 15 -5 34 -2 46 9 87
-17 84 -54 -5 -45 24 -30 43 22 16 44 16 51 1 88 -15 40 -15 43 23 160 l39
119 12 -39 c6 -22 31 -75 54 -118 24 -43 36 -72 27 -64 -10 7 -17 21 -18 30 0
11 -2 12 -6 3 -6 -16 -33 3 -33 24 0 8 -4 14 -10 14 -5 0 -10 -11 -10 -24 0
-13 -5 -26 -12 -28 -6 -2 -12 -23 -12 -46 -1 -25 -6 -44 -14 -47 -11 -4 -8
-15 11 -50 14 -24 28 -58 32 -75 4 -16 10 -30 14 -30 4 0 18 -15 30 -32 l24
-33 -35 35 c-19 19 -43 50 -53 67 -13 23 -21 29 -27 20 -11 -18 -10 -29 3 -21
13 7 -4 -26 -32 -67 -16 -23 -17 -69 0 -69 3 0 15 20 26 45 15 36 21 42 27 28
4 -12 7 -13 7 -4 1 8 4 12 7 9 7 -8 -13 -47 -38 -75 -19 -21 -19 -22 -1 -49
10 -16 12 -25 6 -21 -8 5 -13 3 -13 -5 0 -11 -2 -10 -9 0 -5 9 -8 3 -7 -17 1
-28 2 -29 14 -14 6 9 12 12 12 7 0 -6 -6 -19 -14 -29 -9 -13 -11 -25 -5 -36 6
-11 4 -30 -6 -53 -8 -19 -15 -43 -15 -53 0 -9 -9 -27 -21 -39 -19 -21 -27 -59
-33 -166 0 -14 -4 -24 -8 -21 -5 2 -8 -12 -8 -32 0 -23 -4 -34 -11 -30 -15 10
-3 -52 33 -165 39 -121 40 -124 119 -255 106 -176 103 -169 109 -284 5 -93 8
-105 29 -122 13 -10 34 -19 47 -19 30 0 50 -33 29 -50 -11 -9 -19 -8 -39 5
-14 10 -26 21 -26 27 0 5 -9 4 -20 -2 -11 -6 -20 -20 -20 -32 0 -17 -2 -18
-15 -8 -18 15 -19 7 -4 -22 6 -11 12 -31 14 -45 1 -13 4 -25 6 -26 2 -2 28
-20 57 -41 58 -42 70 -58 20 -28 -92 56 -141 82 -145 78 -3 -2 -2 -14 2 -26 6
-18 9 -19 23 -8 9 7 13 8 9 2 -4 -7 2 -14 14 -17 14 -4 20 -11 16 -21 -4 -11
-1 -13 10 -9 12 5 15 2 11 -9 -4 -9 -1 -21 5 -27 8 -8 8 -11 -2 -11 -10 0 -11
-3 -2 -14 11 -13 21 -46 57 -181 26 -97 24 -92 35 -75 7 11 8 8 3 -11 -3 -15
-1 -30 5 -33 7 -5 9 0 5 11 -5 17 -5 17 6 0 15 -24 4 -35 -20 -20 -17 12 -18
9 -13 -42 4 -38 2 -55 -6 -55 -22 0 -11 -30 27 -72 38 -44 21 -37 -35 15 -28
27 -31 28 -26 8 3 -11 0 -28 -7 -36 -11 -13 -8 -21 15 -45 16 -17 23 -30 17
-30 -17 0 -15 -46 3 -63 12 -13 13 -19 2 -40 -7 -13 -21 -32 -30 -42 -14 -13
-17 -30 -15 -69 3 -49 2 -51 -22 -48 -23 2 -23 1 5 -12 l30 -13 -37 -8 c-39
-7 -59 -41 -35 -60 10 -9 15 -63 7 -87 -1 -5 -4 -12 -5 -18 -1 -5 -4 -13 -5
-17 -1 -5 -2 -11 -2 -14 1 -4 -8 -4 -20 -1 -14 3 -19 1 -14 -6 5 -8 -1 -12
-16 -13 -15 -1 -5 -6 25 -16 34 -10 47 -19 43 -29 -3 -8 -1 -14 4 -14 6 0 10
5 10 11 0 6 8 8 20 4 10 -3 28 -1 39 4 11 6 21 7 23 2 2 -5 45 2 96 14 72 17
103 20 134 14 38 -9 118 -45 118 -54 0 -8 -45 0 -52 10 -5 6 -8 5 -8 -3 0 -8
-5 -10 -12 -6 -8 5 -9 2 -4 -11 5 -15 4 -16 -9 -5 -12 10 -15 10 -15 -2 0 -17
-45 -70 -53 -62 -2 3 -12 -7 -21 -21 -9 -14 -24 -25 -34 -25 -15 0 -15 2 -2
10 13 8 13 10 -2 10 -9 0 -18 -5 -20 -10 -5 -17 -67 -20 -82 -4 -8 8 -16 10
-18 4 -6 -18 -48 20 -48 44 0 30 -9 37 -32 25 -16 -9 -20 -7 -25 10 -8 31 -51
28 -63 -3 -12 -32 -44 -50 -57 -33 -17 20 -43 79 -44 96 0 10 -2 12 -6 4 -7
-19 -60 -16 -67 3 -4 9 -4 19 -1 22 3 3 5 -1 5 -8 0 -7 2 -11 5 -8 3 3 3 12
-1 21 -5 15 -7 15 -22 0 -25 -24 -20 -241 6 -262 16 -12 15 -13 -5 -8 -20 4
-21 2 -16 -32 3 -27 2 -32 -6 -21 -9 13 -11 13 -11 -2 0 -20 22 -34 88 -54 57
-17 96 -18 125 -3 16 9 22 9 25 0 2 -6 26 -11 57 -11 33 0 55 -5 58 -12 3 -8
6 -6 6 5 1 9 7 17 15 17 8 0 17 8 19 18 4 13 5 11 6 -5 1 -15 -5 -23 -16 -23
-9 0 -14 -3 -10 -6 3 -4 19 -2 36 4 25 9 29 8 24 -4 -4 -10 0 -12 11 -8 33 13
17 40 -21 35 -16 -2 -17 15 -2 24 5 4 18 0 27 -8 15 -13 24 -13 80 4 48 15 65
26 72 44 11 28 14 29 39 15 24 -13 113 42 109 67 -2 11 8 22 25 31 30 15 60
63 52 84 -3 8 3 24 14 37 29 34 45 86 32 108 -9 15 -10 13 -11 -14 0 -18 -5
-33 -11 -33 -6 0 -9 -7 -6 -15 4 -8 2 -17 -4 -20 -5 -4 -20 -28 -34 -55 -38
-75 -126 -137 -234 -167 -109 -29 -135 -28 -51 1 121 43 180 75 226 121 35 36
44 51 39 68 -4 14 -3 18 3 9 12 -17 55 92 87 222 13 54 39 124 56 155 38 68
119 191 125 191 6 0 -3 -16 -32 -55 -20 -28 -69 -117 -86 -157 -16 -38 1 -15
46 63 44 75 49 80 74 74 22 -4 34 1 57 25 18 18 30 43 31 60 1 26 0 27 -13 14
-9 -8 -22 -13 -30 -10 -8 3 -17 6 -19 6 -12 0 -1 29 16 45 11 10 18 20 16 23
-3 2 -15 -6 -27 -17 -53 -49 -169 -121 -228 -141 -34 -11 -95 -25 -134 -30
-90 -12 -176 -13 -159 -2 7 5 35 7 62 6 28 -1 48 1 45 6 -3 4 17 13 43 20 l47
13 -49 8 c-27 4 -56 15 -65 23 -14 15 -12 16 22 16 32 0 70 13 87 30 3 3 38
20 77 39 40 19 71 36 69 38 -6 6 -164 -57 -168 -66 -4 -11 -68 -22 -68 -12 0
5 -17 12 -37 16 -99 18 -141 61 -109 110 16 24 56 35 56 15 0 -11 56 -12 81
-2 9 4 43 31 75 60 33 30 90 81 128 115 38 34 87 79 110 100 l41 38 -40 -22
c-22 -11 -49 -29 -60 -39 -17 -15 -88 -50 -102 -50 -2 0 13 16 32 36 20 20 47
37 61 38 13 0 24 4 24 9 0 4 6 7 13 7 7 0 19 9 27 19 7 11 18 17 23 14 5 -3 8
0 5 8 -2 7 6 25 19 39 26 28 28 47 9 73 -17 22 -103 48 -135 40 -19 -5 -23 -3
-18 10 3 9 1 18 -6 21 -7 2 -4 5 6 5 9 1 16 7 15 14 -2 7 5 11 17 9 l20 -4
-20 16 -20 15 20 1 c17 0 17 2 5 10 -13 8 -12 10 3 10 10 0 15 5 12 10 -3 6 1
13 9 16 9 3 16 10 16 15 0 17 65 108 78 108 6 1 12 12 12 25 0 14 5 28 12 32
8 5 9 2 5 -9 -3 -10 -2 -17 3 -17 6 0 10 16 10 35 0 22 6 38 15 41 8 4 12 10
9 15 -3 5 0 9 5 9 6 0 11 5 11 11 0 6 14 29 32 51 25 32 27 37 10 27 -12 -8
-22 -21 -23 -29 0 -10 -4 -7 -11 7 -6 12 -17 23 -25 25 -13 3 -52 83 -68 141
-5 19 -4 20 5 5 6 -10 18 -18 27 -18 14 0 14 2 -2 20 -10 11 -24 20 -32 20 -7
0 -13 5 -13 11 0 6 -19 59 -42 117 -55 136 -53 132 -29 97 12 -16 26 -46 32
-65 12 -34 31 -60 44 -60 4 0 4 8 0 18 -4 9 -20 53 -36 97 -29 82 -31 118 -3
49 20 -49 17 -46 45 -34 23 10 23 10 2 6 -13 -2 -23 0 -23 5 0 5 8 9 18 9 13
0 14 2 3 9 -10 7 -11 9 -1 13 20 6 21 38 2 39 -14 0 -13 2 3 9 19 8 19 9 -2 9
-17 1 -21 5 -16 17 4 10 -1 22 -11 30 -23 16 -33 88 -16 109 17 21 24 73 7 56
-14 -14 -27 -14 -27 0 0 5 4 8 9 5 5 -3 12 1 15 10 3 9 13 14 20 11 19 -7 25
12 14 41 -10 30 14 85 57 125 16 16 24 26 18 22 -21 -10 -15 34 8 63 l21 27
-24 6 c-13 4 -16 7 -7 8 20 1 49 33 49 54 0 8 11 24 25 35 14 11 25 25 25 30
0 6 21 29 48 52 42 38 44 41 19 36 -37 -9 -34 -1 12 25 43 24 58 49 91 154 13
39 31 85 41 103 11 18 19 40 19 49 0 12 8 15 38 10 20 -2 43 -6 51 -8 29 -7
22 32 -13 80 -26 35 -50 55 -87 70 -47 21 -61 22 -173 16 -92 -6 -129 -4 -154
6 l-34 14 79 100 c86 109 156 218 174 272 6 19 9 35 7 37 -70 45 -121 83 -138
101 l-21 23 30 -2 c16 -1 33 -5 37 -9 4 -4 13 -7 21 -7 7 0 22 -9 33 -20 11
-11 28 -20 37 -20 11 0 6 8 -17 25 -19 14 -37 25 -41 25 -4 0 -6 11 -5 24 0
13 5 22 9 19 5 -3 19 -7 33 -9 13 -2 35 -6 49 -8 21 -4 26 1 35 32 9 34 7 38
-23 64 l-32 27 32 1 32 0 -4 78 c-2 42 -7 91 -10 107 -19 82 -30 194 -24 230
5 22 9 60 10 85 1 25 3 37 6 28 4 -16 6 -16 19 -4 8 8 14 22 14 30 0 21 1 21
70 -14 33 -17 60 -36 60 -43 0 -7 7 -22 15 -33 14 -18 14 -17 5 10 -13 36 -9
40 30 31 17 -4 29 -9 26 -12 -7 -7 33 -43 48 -43 6 0 5 4 -3 9 -25 16 8 22 38
7 43 -23 79 -70 96 -128 17 -60 19 -100 5 -183 -5 -33 -14 -118 -20 -190 -14
-172 -24 -227 -71 -369 -21 -65 -39 -123 -39 -128 0 -4 14 -8 31 -8 38 0 150
-28 163 -41 6 -5 22 -9 37 -9 15 0 31 -5 34 -11 4 -5 12 -8 18 -6 7 2 23 0 36
-5 22 -8 23 -7 10 9 -11 14 -11 15 0 9 8 -5 17 -3 23 5 8 11 9 10 4 -3 -3 -10
-2 -18 2 -18 5 0 17 -7 28 -16 17 -14 17 -15 1 -10 -11 3 -16 2 -12 -4 3 -6
12 -10 19 -10 8 0 19 -7 26 -15 7 -8 16 -12 21 -9 5 3 9 2 9 -3 0 -13 43 -59
67 -72 14 -7 43 -55 78 -128 l55 -116 -54 -51 c-30 -28 -63 -70 -75 -93 -11
-23 -30 -44 -41 -48 -11 -4 -18 -11 -14 -16 4 -6 17 -1 31 13 l26 23 -7 -35
c-3 -19 -13 -38 -21 -43 -8 -4 -15 -13 -15 -18 0 -6 4 -7 10 -4 14 9 12 -1 -6
-36 -8 -17 -18 -29 -21 -26 -2 3 0 14 6 25 13 25 14 32 2 32 -9 0 -56 -100
-53 -113 1 -5 -8 -22 -20 -40 -19 -26 -22 -42 -20 -102 4 -90 14 -148 27 -146
6 0 16 19 23 41 8 22 18 38 24 37 12 -2 87 129 87 152 1 8 11 25 23 38 15 16
17 23 7 23 -8 0 1 10 19 21 35 23 41 32 15 22 -16 -6 -16 -4 1 15 10 12 20 30
21 39 1 10 5 27 10 38 4 11 14 35 21 53 19 46 39 36 38 -16 -1 -25 3 -42 10
-42 6 0 4 -5 -4 -11 -11 -8 -12 -12 -2 -16 6 -2 12 -16 12 -29 0 -13 5 -24 10
-24 6 0 10 -5 10 -11 0 -5 -4 -7 -10 -4 -5 3 -10 2 -10 -3 0 -6 7 -13 15 -16
12 -4 14 -14 9 -40 -4 -24 1 -56 16 -101 12 -36 24 -64 26 -62 3 2 -2 24 -10
48 -9 24 -15 60 -15 79 2 33 2 32 9 -10 6 -39 17 -76 37 -130 4 -8 5 -18 5
-22 -1 -5 3 -8 9 -8 5 0 7 -5 3 -11 -3 -6 6 -24 22 -40 15 -16 23 -29 18 -29
-18 0 -55 32 -76 64 l-19 31 6 -55 c4 -30 9 -63 11 -72 3 -10 1 -18 -5 -18 -6
0 -11 -10 -11 -22 0 -50 -17 -53 -41 -7 -25 45 -28 59 -49 194 -7 44 -16 84
-21 89 -5 6 -9 18 -9 29 0 28 -23 15 -35 -19 -5 -16 -13 -33 -18 -39 -73 -95
-157 -293 -161 -377 -2 -41 -12 -22 -46 85 -17 54 -35 95 -40 92 -5 -3 -4 -19
1 -38 5 -17 6 -33 1 -35 -4 -1 -4 -39 -1 -85 5 -71 26 -143 58 -202 3 -6 -1
-4 -9 5 -9 9 -21 15 -27 13 -7 -3 -14 11 -18 34 -4 21 -8 42 -9 47 -4 16 -206
-393 -217 -440 -6 -24 -15 -41 -20 -39 -15 10 -24 -70 -24 -227 0 -122 3 -160
14 -170 12 -11 13 -10 6 7 -12 27 -15 278 -5 329 4 23 8 33 9 23 1 -15 5 -13
26 10 l24 28 1 -45 c0 -25 7 -70 15 -100 18 -66 18 -96 1 -57 -7 15 -14 26
-17 23 -2 -2 -5 16 -6 40 -1 24 -7 52 -13 62 -9 14 -10 12 -5 -12 4 -20 1 -32
-12 -43 -10 -8 -12 -12 -5 -8 7 4 12 0 12 -9 0 -9 -4 -16 -10 -16 -17 0 -12
-199 6 -261 23 -78 73 -168 103 -187 14 -9 43 -33 63 -54 66 -67 207 -86 310
-44 50 21 116 84 138 130 11 23 29 57 42 76 19 31 15 29 -32 -17 -51 -50 -127
-95 -187 -109 -26 -7 -27 -6 -14 10 8 9 20 15 27 12 7 -3 16 -1 18 3 3 5 18
11 33 14 16 3 38 14 51 24 12 10 36 29 53 43 38 31 101 123 96 141 -2 8 -2 11
0 7 6 -10 100 87 118 123 15 29 15 32 -2 44 -15 11 -20 9 -40 -20 -16 -24 -29
-33 -43 -30 -11 2 -23 -1 -26 -7 -4 -6 -2 -8 4 -4 6 3 14 1 18 -6 4 -7 4 -10
-1 -6 -4 4 -16 3 -26 -2 -12 -7 -20 -7 -24 0 -4 6 -11 8 -16 5 -5 -4 -9 -1 -9
4 0 6 9 11 20 11 25 0 27 20 3 21 -14 0 -14 2 3 9 26 10 40 30 22 30 -10 1 -9
4 2 13 22 17 14 41 -18 55 -27 12 -27 12 7 7 27 -4 32 -2 27 11 -3 8 -1 24 4
34 6 11 13 53 16 95 3 42 9 87 14 101 5 13 6 24 1 24 -5 0 -11 7 -14 14 -4 10
-1 13 7 10 8 -3 17 -1 21 5 3 6 28 11 55 11 38 0 48 3 44 14 -3 7 -12 13 -21
12 -8 0 -19 9 -24 21 -7 18 -5 21 9 16 9 -3 14 -3 10 2 -7 8 67 35 185 69 31
9 57 21 57 26 0 6 14 10 31 10 33 0 129 42 110 48 -6 2 -9 7 -7 11 7 11 -58 0
-65 -11 -3 -5 -43 -10 -90 -11 -93 -2 -153 19 -147 51 4 20 20 22 192 22 71 0
134 4 140 8 6 4 54 12 107 18 94 10 189 44 189 66 0 6 8 17 17 24 17 13 17 14
-2 7 -17 -6 -18 -4 -8 9 7 8 10 17 7 21 -3 3 13 19 35 35 23 17 36 32 30 34
-7 2 -4 9 7 18 10 8 15 10 11 3 -4 -6 -3 -14 2 -17 5 -3 12 1 15 10 10 26 7
34 -11 27 -22 -7 -69 -55 -65 -65 1 -5 -4 -7 -10 -6 -7 2 -12 -3 -10 -10 1 -8
-2 -11 -8 -7 -5 3 -20 1 -32 -5 -13 -7 -1 7 25 31 27 23 44 45 39 48 -14 9
-27 55 -13 46 8 -4 10 3 6 25 -4 20 -2 29 5 25 5 -3 10 -1 10 4 0 6 -4 11 -9
11 -5 0 -12 8 -14 18 -4 16 -5 16 -6 -1 -2 -36 -112 -52 -130 -19 -10 20 1 98
17 114 5 5 34 11 64 12 48 1 53 -1 56 -22 4 -25 -25 -43 -37 -23 -5 8 -18 10
-34 5 -22 -5 -27 -12 -27 -35 0 -24 4 -29 25 -29 14 0 28 7 31 15 4 8 14 15
24 15 29 0 42 64 18 88 -9 9 -8 13 4 17 11 5 15 28 17 103 1 53 3 109 5 125 4
30 -11 47 -20 24 -6 -15 -39 -30 -61 -28 -9 1 -13 -13 -13 -43 0 -45 0 -45
-34 -44 -67 2 -76 19 -79 145 -1 62 -5 113 -9 113 -11 0 -5 44 7 52 6 5 3 8
-8 8 -33 0 -74 29 -87 60 -19 45 -5 48 16 3 16 -31 25 -39 52 -41 46 -5 72 20
72 69 0 29 -6 42 -27 58 -31 25 -58 20 -90 -15 -13 -14 -23 -21 -23 -15 0 5
15 22 33 37 17 15 32 30 31 33 0 3 -13 9 -30 13 -35 9 147 1 195 -8 31 -6 33
-5 20 9 -8 8 -17 13 -21 11 -3 -2 -8 1 -10 8 -5 15 -45 21 -53 8 -9 -14 -42 5
-49 27 -3 11 -17 19 -32 20 -27 1 -52 18 -42 29 4 3 16 1 27 -6 14 -7 21 -7
21 0 0 5 8 11 18 11 9 1 -1 5 -23 9 l-40 7 55 3 55 3 -45 7 c-101 16 -297 -22
-408 -79 -101 -52 -195 -145 -208 -205 -6 -27 -8 -28 -19 -13 -6 9 -14 15 -16
13 -2 -2 -10 2 -17 10 -8 9 -9 14 -2 14 6 0 8 4 5 10 -3 6 1 7 9 4 19 -7 22
12 4 20 -7 3 -4 4 7 1 11 -2 27 0 35 6 13 9 12 10 -2 5 -24 -7 -23 -1 7 28 16
16 20 26 12 29 -7 3 -4 6 6 6 9 1 17 6 17 12 0 5 -4 8 -9 4 -5 -3 -12 -1 -16
5 -3 5 -1 10 6 10 9 0 9 3 0 14 -9 11 -9 15 1 19 10 4 10 8 -2 17 -12 10 -11
11 8 7 23 -5 23 -5 7 13 -16 18 -16 18 7 13 19 -5 17 -1 -11 21 -19 14 -30 26
-25 26 6 0 15 -5 22 -12 8 -8 12 -8 12 -1 0 6 -19 18 -41 27 -34 14 -48 15
-78 5 -20 -6 -41 -16 -48 -21 -7 -5 -18 -6 -24 -2 -9 5 -10 2 -6 -9 3 -10 2
-17 -3 -17 -23 0 -7 68 25 106 25 30 105 119 157 174 31 34 58 66 61 73 2 8
23 11 56 10 l53 -1 -22 23 -22 24 96 -5 c53 -2 138 -6 189 -8 130 -6 228 -45
322 -127 19 -17 68 -78 107 -135 68 -99 87 -122 74 -89 -4 10 1 15 14 15 12 0
20 7 20 17 0 9 3 14 6 11 3 -4 21 0 39 8 40 16 99 20 75 4 -8 -5 -10 -10 -4
-10 36 0 264 103 264 120 0 6 -7 19 -16 27 -10 10 -13 25 -10 39 4 14 2 24 -4
24 -5 0 -10 10 -10 21 0 21 1 21 28 4 15 -10 39 -31 53 -47 26 -28 89 -46 89
-25 0 7 4 7 12 -1 7 -7 21 -12 33 -12 13 0 4 9 -30 28 -27 15 -87 52 -132 82
-75 49 -81 55 -64 67 10 7 22 29 25 50 4 21 10 47 13 58 l5 20 -16 -20 c-8
-11 -16 -16 -16 -11 0 5 -7 3 -15 -4 -13 -11 -14 -10 -9 4 3 9 11 16 18 16 15
0 36 48 29 66 -8 21 -28 17 -60 -10 l-29 -25 -18 34 c-28 51 -325 305 -357
305 -5 0 -48 26 -97 58 -49 32 -115 69 -148 82 -32 13 -106 53 -164 88 -200
123 -275 146 -585 180 l-70 8 67 17 c49 12 78 15 113 8 50 -9 120 3 110 19 -3
5 -12 7 -20 3 -8 -3 -15 -1 -15 5 0 6 -10 8 -22 4 -15 -4 -19 -2 -13 7 4 8 17
10 31 7 15 -4 24 -2 24 5 0 12 32 9 172 -18 72 -14 94 -14 127 -4 23 6 41 16
41 22 0 6 3 8 8 5 4 -2 23 8 42 24 l35 28 -50 -10 c-28 -5 -106 -7 -175 -3
-132 6 -155 3 -492 -60 l-147 -28 -135 20 c-74 10 -132 15 -130 11 8 -12 -4
-9 -30 7 -15 10 -59 18 -112 22 -49 3 -96 9 -104 14 -12 6 -11 8 5 7 11 0 55
9 97 20 44 12 93 19 115 16 31 -3 34 -2 18 6 -21 11 -27 11 159 -11 66 -8 91
-8 96 1 5 8 24 10 56 6 l49 -6 -60 20 c-35 11 -89 20 -130 21 l-70 1 63 14
c55 12 213 36 340 51 23 3 42 9 42 14 0 5 7 9 15 9 8 0 15 5 15 11 0 5 -4 8
-8 5 -5 -3 -40 -10 -78 -16 -38 -6 -78 -13 -89 -15 -13 -3 -11 -1 5 7 14 6 81
39 150 73 69 34 138 65 154 69 16 4 61 23 100 42 39 19 83 34 98 34 21 0 28 5
28 20 0 19 -19 26 -55 21 -31 -4 68 62 112 75 60 18 70 29 18 21 -36 -6 -57 6
-29 17 46 18 98 3 146 -42 36 -33 44 -23 29 36 -17 69 -22 150 -9 158 7 5 8 2
3 -6 -6 -10 -4 -12 9 -7 9 4 15 3 12 -2 -3 -5 7 -14 23 -21 17 -6 44 -23 62
-36 18 -13 35 -21 40 -19 4 3 10 -4 14 -15 3 -11 10 -20 15 -20 13 0 160 -178
215 -260 16 -25 34 -48 39 -51 4 -4 3 -10 -3 -13 -6 -4 -11 -20 -11 -35 0 -31
37 -58 64 -48 23 9 20 23 -10 46 -15 11 -23 25 -19 32 5 7 15 1 31 -17 l23
-29 -6 40 c-3 25 -28 75 -64 132 -33 50 -57 97 -56 105 2 7 2 10 0 6 -8 -13
-25 -9 -20 5 2 6 -3 24 -11 39 -15 26 -15 29 3 42 11 8 17 18 12 22 -4 4 -13
0 -20 -10 -11 -15 -17 -16 -40 -5 -20 9 -27 19 -25 33 2 17 14 23 58 32 45 8
56 8 58 -4 3 -9 9 -4 18 13 21 40 17 47 -16 30 -34 -18 -66 -19 -75 -4 -4 6
14 30 39 54 25 23 46 46 46 50 0 4 9 20 21 36 17 24 18 33 9 44 -19 23 -26 18
-44 -29 -24 -62 -51 -76 -158 -85 -74 -6 -101 -4 -142 10 -82 28 -72 45 30 53
61 4 101 13 135 30 26 14 50 22 53 19 3 -4 6 -1 6 6 0 8 7 10 20 6 11 -4 20
-2 20 4 0 6 -5 11 -11 11 -6 0 -9 7 -6 15 4 8 2 17 -3 20 -6 4 -10 15 -10 26
0 14 7 19 25 19 33 0 85 38 85 62 0 33 -47 94 -87 113 -21 10 -41 24 -46 31
-12 21 -88 68 -142 88 -72 27 -153 116 -146 159 1 5 -3 25 -8 45 -6 20 -11 69
-12 107 -1 39 -5 81 -9 95 -10 36 14 86 49 101 30 13 41 34 41 77 0 12 5 22
10 22 6 0 4 13 -5 30 -15 29 -21 90 -9 90 4 0 13 -8 21 -17 9 -12 8 -5 -3 17
-14 29 -15 33 -2 22 13 -10 17 -10 22 4 4 10 2 22 -4 28 -8 8 -9 5 -4 -9 6
-16 4 -18 -6 -8 -11 10 -11 15 0 28 8 10 9 15 1 15 -6 0 -11 5 -11 11 0 5 -11
27 -25 47 -14 20 -25 32 -25 26 0 -5 5 -15 12 -22 6 -6 9 -14 6 -18 -4 -3 -13
5 -21 18 -93 150 -135 205 -240 309 -75 74 -117 109 -117 98 0 -10 23 -39 51
-66 28 -26 75 -72 105 -101 66 -66 174 -235 167 -262 -3 -11 -10 -20 -15 -20
-5 0 -7 3 -5 8 3 4 -1 13 -9 19 -8 8 -15 9 -19 3 -3 -6 -3 -10 2 -11 4 0 -2
-4 -15 -10 -15 -6 -31 -5 -44 2 -11 6 -18 7 -15 2 3 -5 -8 -15 -24 -22 -17 -7
-28 -15 -25 -18 2 -2 14 1 26 7 14 8 26 8 32 2 10 -10 -48 -26 -63 -16 -5 2
-19 0 -31 -6 -17 -9 -15 -5 7 13 20 17 24 25 13 23 -9 -1 -27 -11 -39 -22
l-22 -19 7 25 7 25 -14 -23 c-7 -12 -16 -20 -20 -16 -10 11 -47 -36 -47 -60 0
-12 -9 -26 -22 -31 -22 -10 -69 -84 -62 -97 3 -4 -2 -5 -11 -2 -11 5 -14 2 -9
-10 5 -13 0 -16 -25 -16 -25 0 -31 -4 -31 -22 0 -21 0 -21 -21 3 -32 37 -69
97 -69 113 0 9 33 66 74 128 41 62 84 137 96 167 27 70 70 239 69 271 -1 23
-2 23 -9 -5 -5 -18 -8 32 -7 124 2 148 3 154 25 169 19 12 23 13 20 1 -2 -8 4
-13 14 -13 10 1 15 -2 12 -7 -6 -11 45 -58 64 -59 6 0 13 8 13 18 5 54 3 88
-5 93 -4 4 9 12 30 19 22 7 85 37 142 67 66 34 120 56 150 59 l47 5 132 -139
c73 -77 137 -152 143 -167 12 -31 14 -165 2 -165 -4 0 -8 -15 -9 -33 -1 -49
-34 -105 -97 -166 -30 -30 -52 -59 -49 -64 3 -6 1 -7 -4 -4 -6 4 -36 -24 -67
-62 -52 -63 -58 -76 -67 -138 -5 -37 -22 -112 -36 -165 l-26 -98 38 -55 c20
-30 39 -55 42 -55 2 0 1 5 -3 12 -4 7 -3 8 4 4 6 -4 9 -12 6 -19 -2 -7 10 -28
27 -47 17 -19 26 -27 20 -18 -9 13 -9 21 1 38 11 17 11 22 -2 30 -8 5 -11 10
-6 10 5 0 3 7 -4 15 -11 13 -11 18 0 28 10 9 11 9 6 -1 -4 -7 -2 -19 4 -27 18
-22 51 -18 57 5 3 11 10 17 15 13 6 -3 8 0 6 8 -3 8 4 24 16 37 19 22 20 25 4
36 -15 11 -15 13 3 24 10 7 32 12 49 12 16 0 30 5 30 10 0 6 -4 10 -10 10 -5
0 -10 4 -10 9 0 6 21 11 47 13 l47 3 -3 48 -3 47 52 0 c46 0 50 2 41 18 -7 13
-6 23 1 30 16 16 55 15 60 0 6 -17 30 7 53 52 10 19 24 40 31 45 17 13 22 47
7 52 -6 2 -13 -6 -15 -19 -4 -20 -6 -21 -12 -6 -10 21 11 44 39 45 11 0 28 3
38 8 13 6 17 2 17 -16 1 -21 2 -22 13 -8 7 8 21 21 32 27 18 10 17 11 -11 12
l-32 0 32 34 c37 40 69 58 90 50 8 -3 20 -3 27 1 15 10 -10 26 -31 20 -8 -2
-22 0 -30 5 -10 7 6 8 49 5 35 -2 66 -7 69 -10 3 -3 -2 -5 -11 -5 -9 0 -18 -3
-20 -7 -3 -5 5 -8 18 -8 13 0 21 4 17 9 -3 5 2 7 11 3 9 -3 18 -3 21 1 3 5
-26 16 -64 26 -38 9 -85 28 -105 42 -41 27 -46 29 -41 12 1 -7 1 -10 -1 -5 -3
4 -10 4 -16 0 -9 -5 -9 -3 0 8 9 11 8 20 -2 39 -8 14 -14 33 -15 43 0 24 -9
21 -45 -13 -25 -24 -175 -97 -175 -85 0 2 23 17 50 34 36 22 63 51 94 99 77
120 96 166 100 251 2 29 7 35 36 45 24 8 36 18 38 34 4 26 -14 30 -21 5 -4
-17 -5 -17 -6 0 -1 18 -9 18 -58 0 -8 -3 -13 4 -13 18 0 27 -21 89 -31 89 -3
0 -26 -7 -49 -15 -64 -23 -60 -10 5 14 64 24 69 25 60 11 -12 -20 35 -9 62 14
21 19 25 27 16 36 -12 13 -77 4 -69 -9 8 -12 -62 -41 -124 -54 -92 -18 -155
-15 -176 8 -11 12 -14 14 -9 6 9 -12 7 -12 -13 -2 -12 7 -20 16 -17 20 2 5 -3
15 -13 22 -15 13 -16 12 -3 -3 7 -10 9 -18 3 -18 -12 0 -34 25 -27 32 3 3 -3
11 -12 19 -16 13 -17 12 -4 -3 39 -51 -40 4 -161 112 -98 86 -152 158 -135
179 10 14 10 14 -5 3 -14 -11 -18 -10 -27 5 -19 33 -11 5 10 -34 l20 -38 -21
26 c-22 26 -22 27 -41 8 -11 -11 -24 -17 -29 -14 -5 3 -4 -8 1 -24 17 -49 6
-56 -22 -14 -16 24 -31 37 -42 35 -16 -3 -16 -1 2 17 12 12 29 21 39 21 35 0
62 13 62 29 0 11 18 22 58 34 73 22 252 57 296 57 24 0 56 15 110 52 42 28 78
49 81 47 3 -3 -26 -25 -63 -49 l-67 -43 80 -17 c217 -47 286 -62 355 -79 l75
-19 -90 -1 c-49 -1 -96 -5 -104 -10 -24 -15 6 -22 51 -11 53 12 98 13 98 2 0
-5 -14 -8 -32 -7 -17 1 -49 -2 -70 -8 l-38 -9 16 -27 c9 -15 24 -38 34 -50
l17 -23 66 31 66 31 25 -25 c14 -14 26 -28 26 -30 0 -2 -41 -7 -91 -11 -73 -5
-89 -9 -85 -21 3 -8 6 -22 6 -30 0 -12 7 -14 38 -8 61 12 165 10 199 -4 37
-15 45 -44 44 -166 0 -83 -22 -165 -57 -222 -14 -21 -15 -25 -3 -16 9 7 29 36
45 65 28 52 29 56 28 198 0 136 -8 191 -40 268 -4 7 2 12 13 12 10 0 24 4 32
9 12 8 12 13 -2 35 -16 24 -19 24 -49 11 -31 -13 -33 -12 -44 14 -6 15 -33 42
-59 59 l-48 32 71 0 c64 0 75 -3 104 -28 19 -16 47 -29 68 -31 40 -3 84 -27
75 -41 -3 -5 -12 -7 -20 -4 -8 4 -13 9 -10 13 2 4 -10 5 -27 3 -19 -3 -33 0
-39 9 -6 10 -11 11 -19 3 -9 -9 -6 -22 12 -50 13 -22 29 -51 36 -66 6 -16 18
-28 26 -28 7 0 16 -6 18 -12 8 -21 -2 -37 -20 -32 -15 5 -15 4 1 -9 14 -11 15
-16 5 -21 -7 -3 -4 -5 7 -5 42 2 52 -2 63 -26 19 -41 15 -52 -40 -138 -29 -44
-53 -83 -53 -86 0 -3 -4 -13 -9 -21 -6 -9 -1 -7 12 4 12 11 20 21 18 24 -3 2
12 25 31 50 48 63 73 122 87 205 l12 70 22 -23 c12 -13 22 -36 22 -52 0 -18 5
-28 15 -28 19 0 19 23 -1 61 -8 17 -13 36 -11 42 2 7 14 -8 27 -32 18 -36 20
-48 11 -64 -10 -15 -7 -24 20 -55 18 -20 36 -37 40 -37 4 0 11 -4 16 -9 5 -5
3 -6 -4 -2 -17 9 -16 1 1 -33 23 -43 30 -144 18 -239 -7 -48 -13 -115 -15
-150 -3 -55 -2 -60 9 -40 7 13 10 34 7 47 -4 17 -2 22 6 17 7 -5 13 4 17 23 4
17 11 31 16 31 5 0 6 -9 3 -20 -6 -20 -2 -20 239 -20 l246 0 0 50 0 50 36 0
c19 0 42 -7 51 -15 14 -14 13 -15 -11 -9 -25 6 -26 4 -26 -35 0 -30 4 -41 15
-41 8 0 15 7 15 15 0 8 9 15 20 15 11 0 20 5 20 10 0 6 9 10 20 10 13 0 20 7
20 20 0 17 7 20 40 20 29 0 40 4 40 15 0 11 11 15 40 15 l40 0 0 -40 0 -40
-40 0 -40 0 0 -42 c0 -38 1 -40 18 -26 9 9 28 19 41 23 13 4 41 24 62 44 47
45 60 55 82 64 9 3 17 11 17 17 0 20 19 10 22 -12 2 -16 -10 -36 -40 -65 l-42
-43 120 0 120 0 0 1000 0 1000 -3520 0 -3520 0 0 -1949z m3887 1247 c-3 -7 -5
-2 -5 12 0 14 2 19 5 13 2 -7 2 -19 0 -25z m-257 -77 c0 -45 -6 -37 -14 19 -4
31 -3 40 4 30 5 -8 10 -30 10 -49z m40 2 c0 -45 -5 -40 -13 10 -3 22 -2 35 4
32 5 -4 9 -22 9 -42z m147 10 c-3 -10 -5 -4 -5 12 0 17 2 24 5 18 2 -7 2 -21
0 -30z m-80 -13 c-2 -22 -6 -43 -9 -45 -7 -7 -9 66 -2 76 11 18 15 8 11 -31z
m31 -20 c-14 -49 -16 -48 -16 9 -1 41 2 48 12 39 10 -9 11 -22 4 -48z m17 -88
c-15 -16 -16 -15 -4 12 7 15 15 23 17 16 3 -7 -3 -19 -13 -28z m-604 -46 c-9
-11 -26 -95 -23 -108 1 -5 -3 -8 -9 -8 -6 0 -9 -7 -6 -14 6 -15 -29 -34 -40
-22 -4 3 -13 0 -22 -7 -9 -6 -4 5 12 25 17 24 27 49 27 72 0 19 5 38 10 41 6
3 10 15 10 25 0 11 8 29 17 40 18 20 18 20 25 -7 4 -15 3 -32 -1 -37z m669 49
c-7 -9 -15 -13 -17 -11 -7 7 7 26 19 26 6 0 6 -6 -2 -15z m128 -25 l14 -25
-18 21 c-11 12 -26 24 -34 28 -10 4 -9 5 4 3 10 -1 25 -13 34 -27z m-523 -20
c4 -6 10 -8 15 -5 5 3 11 1 15 -4 3 -5 18 -16 34 -24 26 -13 34 -13 69 3 29
13 57 17 107 14 39 -2 73 0 80 6 24 20 63 1 75 -36 11 -34 11 -57 -16 -404
-10 -136 -22 -179 -45 -164 -5 3 -6 -3 -2 -12 4 -11 2 -15 -4 -11 -14 9 -45
-63 -41 -93 2 -14 9 -34 14 -45 30 -56 39 -125 39 -290 -1 -176 -20 -311 -61
-416 -35 -90 -39 -73 -22 81 2 14 11 31 21 38 28 22 19 34 -13 17 -16 -8 -29
-20 -27 -26 1 -6 -13 -19 -30 -28 -29 -14 -32 -20 -27 -47 4 -24 0 -38 -22
-63 -16 -19 -28 -46 -29 -66 -1 -19 -8 -41 -15 -50 -18 -21 3 -20 56 4 l41 18
0 -36 c0 -20 2 -69 4 -109 3 -68 2 -75 -21 -92 l-24 -18 21 -58 c91 -257 123
-358 119 -370 -3 -7 5 -20 17 -29 24 -17 16 -20 -13 -5 -19 10 -19 9 -3 -22 9
-18 20 -41 25 -51 5 -10 4 -25 -2 -37 -16 -29 -12 -82 9 -116 16 -25 21 -59
26 -170 8 -178 20 -209 99 -247 31 -15 56 -32 56 -38 0 -6 7 -9 15 -5 8 3 15
1 15 -4 0 -6 7 -10 15 -10 8 0 15 -6 15 -13 0 -7 18 -23 39 -37 38 -23 39 -25
26 -49 -23 -44 -68 -88 -115 -112 -25 -13 -47 -26 -50 -30 -20 -26 -187 -87
-335 -123 -33 -7 -50 -14 -39 -15 12 -1 74 12 137 29 133 34 139 35 110 15
-66 -46 -243 -86 -448 -101 -33 -2 -70 -7 -82 -9 -13 -3 -23 -1 -23 4 0 5 23
12 50 16 28 4 56 13 63 20 8 7 22 15 33 18 27 8 -66 -1 -153 -14 -74 -12 -317
-7 -362 7 -23 7 -24 8 -5 15 10 4 41 8 67 8 27 1 67 5 90 10 23 6 70 15 105
22 34 7 62 17 62 22 0 5 -7 7 -15 3 -22 -8 -75 4 -75 18 0 6 23 20 52 30 67
24 47 38 -42 30 -36 -3 -76 -2 -89 3 -21 8 -16 11 40 23 35 8 68 13 72 12 5
-1 6 2 3 7 -4 5 -16 8 -29 5 -52 -12 -85 -11 -80 3 3 7 9 11 13 8 5 -3 12 0
16 7 4 7 4 10 -1 6 -4 -4 -14 0 -22 8 -14 13 -13 17 2 34 16 17 61 35 78 31 5
-1 6 3 2 9 -3 5 0 10 7 10 7 0 -4 14 -25 31 -42 35 -45 54 -17 109 11 22 16
40 10 40 -5 0 -10 20 -10 43 0 31 -6 49 -20 62 -11 10 -20 29 -20 43 0 38 22
103 37 109 7 3 10 9 7 14 -3 5 2 9 10 9 15 0 36 29 36 49 0 6 -12 14 -26 17
-18 5 -23 11 -18 23 66 160 137 559 100 562 -7 0 -7 2 -1 5 12 5 7 84 -4 84
-19 0 -41 -70 -43 -135 -2 -40 -7 -69 -13 -68 -5 1 -11 11 -13 23 -3 15 -11
20 -36 20 -49 0 -50 9 -5 44 22 17 71 78 109 136 38 58 74 109 79 113 48 42
71 68 71 79 -1 7 -8 1 -16 -14 -16 -31 -30 -38 -20 -11 6 15 5 15 -13 -1 -11
-10 -18 -23 -15 -27 3 -5 3 -9 0 -9 -2 0 -11 -3 -19 -6 -9 -3 -16 3 -20 17 -4
14 -11 20 -21 16 -14 -5 -15 0 -10 33 8 48 -4 51 -52 15 -18 -14 -39 -25 -48
-25 -8 0 -18 -4 -21 -10 -3 -5 -14 -10 -23 -10 -13 0 -14 2 -3 9 8 5 9 11 3
15 -17 10 -40 -4 -36 -22 6 -23 -4 -35 -46 -61 -19 -11 -33 -24 -32 -28 2 -4
-15 -17 -39 -29 -23 -13 -47 -28 -53 -34 -5 -5 -16 -10 -24 -10 -7 0 0 11 16
25 17 14 35 25 40 25 13 0 42 28 42 41 0 17 -22 9 -42 -17 -14 -17 -24 -22
-31 -15 -5 5 -17 6 -26 2 -50 -24 -76 -41 -79 -50 -6 -18 20 -13 34 6 7 10 16
14 20 10 5 -4 2 -12 -6 -17 -8 -5 -11 -12 -7 -16 4 -4 -14 -21 -40 -37 -43
-27 -49 -29 -73 -16 -15 9 -30 31 -38 57 -8 23 -18 39 -24 36 -6 -4 -8 4 -6
17 2 16 14 29 36 38 39 17 40 24 7 39 -27 13 -30 27 -15 67 14 38 52 226 47
231 -3 3 -13 -28 -22 -68 -10 -40 -20 -68 -22 -61 -4 12 24 133 33 142 8 9 31
-23 74 -104 56 -104 81 -138 94 -125 6 6 4 16 -6 27 -8 10 -18 25 -22 33 -7
13 -6 13 6 0 36 -41 43 -41 77 -6 l33 34 -30 33 c-47 55 -145 230 -135 240 6
6 29 -20 62 -69 28 -43 71 -101 95 -128 36 -40 46 -46 51 -32 4 11 -1 25 -15
40 -31 31 -120 170 -120 186 0 21 17 13 36 -15 25 -39 135 -163 145 -163 17 0
20 42 5 65 -9 13 -16 30 -15 37 0 8 2 9 5 2 6 -15 64 -5 96 17 14 11 73 35
129 55 57 20 119 44 139 53 19 10 48 21 63 25 20 5 33 17 43 41 20 48 18 62
-5 41 -24 -22 -40 -3 -18 22 8 9 18 27 21 40 4 12 13 22 21 22 7 0 16 7 19 16
4 9 9 14 12 11 3 -3 0 -15 -6 -27 -9 -16 -9 -25 -1 -33 8 -8 11 -6 11 6 0 9 3
17 8 17 4 0 12 10 17 22 13 28 35 35 35 11 0 -10 -9 -51 -19 -92 l-18 -73 52
6 c30 3 61 9 70 12 11 5 18 0 22 -14 3 -12 11 -18 18 -16 23 9 30 199 11 303
-9 49 -16 103 -16 120 0 17 -3 31 -7 31 -9 -1 -53 -67 -53 -81 0 -5 -5 -9 -12
-9 -15 0 -108 -101 -108 -117 0 -7 -4 -13 -10 -13 -5 0 -12 -11 -16 -24 -5
-22 -16 -31 -42 -37 -4 -1 -12 -9 -19 -18 -9 -11 -12 -12 -13 -3 0 7 -4 11 -9
7 -6 -3 -14 3 -20 12 -9 16 -12 16 -21 3 -9 -12 -10 -11 -6 5 5 18 2 21 -29
20 -20 -1 -36 4 -39 12 -3 7 -1 13 4 13 6 0 10 5 10 12 0 6 -10 3 -22 -8 -12
-10 -18 -13 -14 -6 4 6 2 12 -3 12 -6 0 -11 8 -10 18 0 11 2 12 6 4 7 -17 33
3 34 27 0 10 2 12 6 3 2 -6 10 -9 16 -5 6 4 32 7 57 7 47 1 80 18 80 41 0 8
-8 11 -21 8 -16 -4 -20 -2 -17 8 3 8 13 14 24 14 10 0 29 10 43 23 13 12 32
22 42 22 14 0 19 7 19 25 0 14 1 28 1 33 2 9 -44 33 -51 26 -2 -3 6 -14 20
-24 30 -24 24 -25 -23 -5 -20 8 -58 15 -84 15 -26 0 -55 5 -63 11 -11 8 -7 9
20 6 37 -5 96 19 120 48 12 14 10 15 -13 6 -19 -7 -33 -7 -50 2 -34 18 -87 64
-87 76 0 18 28 12 32 -6 2 -10 14 12 26 49 16 50 20 73 12 92 -8 21 -5 31 15
55 28 33 36 105 11 95 -8 -3 -23 4 -34 16 -11 12 -25 19 -30 16 -5 -3 -38 21
-73 54 -52 49 -70 60 -99 61 -19 0 -30 3 -23 6 10 3 10 9 0 24 -10 18 -8 24
18 45 17 13 36 22 43 19 6 -2 12 2 12 10 0 8 7 15 15 15 8 0 15 5 15 10 0 6 7
10 15 10 8 0 15 4 15 9 0 6 19 12 43 14 23 2 47 4 54 5 6 1 15 -3 18 -8z m493
-75 c-3 -3 -9 2 -12 12 -6 14 -5 15 5 6 7 -7 10 -15 7 -18z m1425 -34 c78 -28
179 -96 252 -172 33 -34 53 -58 45 -54 -8 5 -5 -3 7 -16 26 -29 56 -107 48
-127 -7 -19 -55 35 -55 61 0 10 -7 31 -15 48 -9 16 -13 34 -10 39 3 5 0 12 -6
16 -8 5 -9 3 -4 -7 5 -8 -3 -2 -18 14 -14 15 -30 27 -34 28 -4 0 -17 3 -28 6
-44 11 -155 22 -235 23 -47 1 -96 6 -110 10 -15 6 36 8 133 7 86 -1 157 1 157
6 0 4 -10 7 -22 7 -19 0 -20 2 -8 10 9 6 10 10 3 10 -6 0 -19 3 -29 7 -11 4
-15 3 -10 -5 5 -8 -2 -8 -26 0 -44 14 -55 25 -41 39 38 38 -133 77 -257 59
-75 -11 -91 -6 -28 9 67 16 223 6 291 -18z m-2317 -133 c-9 -50 -11 -55 -25
-72 -11 -13 -11 -27 -2 -74 7 -31 11 -61 10 -67 -2 -5 2 -20 9 -32 14 -25 6
-127 -9 -117 -5 3 -9 -10 -9 -28 0 -18 -5 -50 -10 -70 -12 -43 -32 -42 -50 3
-7 16 -18 29 -25 29 -17 0 -7 40 10 47 7 2 16 15 19 28 3 13 15 27 26 30 11 4
18 11 14 16 -3 5 -10 7 -15 4 -5 -4 -10 -3 -10 2 -9 57 -3 85 13 62 10 -14 9
-8 -12 90 -12 53 -6 83 29 138 31 51 46 55 37 11z m2182 -69 c39 -6 72 -15 72
-20 0 -12 -3 -12 -110 11 -51 11 -95 20 -97 20 -2 0 -3 4 -3 9 0 5 13 6 33 0
17 -5 65 -14 105 -20z m269 5 c-3 -3 -12 -4 -19 -1 -8 3 -5 6 6 6 11 1 17 -2
13 -5z m-2432 -20 c13 -5 14 -8 3 -15 -10 -7 -11 -9 0 -9 7 0 10 -4 7 -10 -4
-6 13 -10 44 -10 32 0 65 -8 88 -20 21 -11 47 -20 58 -20 27 -1 97 -35 88 -43
-3 -4 -1 -7 6 -7 16 0 -19 -60 -39 -68 -8 -2 -31 -20 -51 -39 -32 -30 -40 -33
-58 -24 -12 7 -21 17 -21 24 -1 13 -65 87 -78 88 -4 0 -20 16 -36 35 -21 25
-29 45 -28 70 1 19 -3 34 -8 34 -6 0 -10 5 -10 10 0 12 11 13 35 4z m181 -21
c-7 -7 -26 7 -26 19 0 6 6 6 15 -2 9 -7 13 -15 11 -17z m69 -4 c-10 -15 -25
-10 -19 6 4 8 10 12 15 9 5 -3 7 -10 4 -15z m2083 -69 c17 -28 28 -50 22 -50
-8 0 -28 28 -64 88 -4 6 -4 12 1 12 4 0 23 -23 41 -50z m257 -35 c14 -53 0
-50 -15 3 -12 44 -13 58 -3 48 4 -4 12 -27 18 -51z m-1455 29 c30 -3 60 -10
65 -16 7 -7 0 -9 -22 -6 -29 4 -31 3 -19 -11 7 -9 11 -21 9 -28 -2 -6 1 -14 6
-18 25 -15 9 -34 -36 -44 -27 -5 -84 -22 -128 -36 -60 -20 -91 -25 -122 -20
-23 3 -51 1 -62 -4 -21 -12 -21 -15 -5 92 5 34 10 45 16 35 6 -9 8 -2 5 20 -4
35 -2 36 68 46 30 4 120 0 225 -10z m1080 6 c13 -8 13 -10 -2 -10 -9 0 -20 5
-23 10 -8 13 5 13 25 0z m-910 -51 c11 19 19 14 106 -66 44 -39 106 -93 139
-119 33 -27 80 -67 104 -91 24 -24 47 -43 52 -43 4 0 11 -6 16 -12 10 -18 10
-107 -1 -101 -4 3 0 -6 9 -21 36 -54 -4 -23 -85 67 -46 50 -148 155 -225 232
-115 113 -143 147 -148 175 l-6 35 15 -34 c11 -25 18 -31 24 -22z m1374 26 c3
-8 1 -15 -4 -15 -6 0 -10 7 -10 15 0 8 2 15 4 15 2 0 6 -7 10 -15z m-1877 -27
c-3 -7 -5 -2 -5 12 0 14 2 19 5 13 2 -7 2 -19 0 -25z m1507 -57 c47 -3 1 -12
-73 -14 -73 -2 -99 2 -87 14 4 4 108 4 160 0z m-2759 -51 c3 -5 13 -6 23 -3
15 6 15 5 3 -11 -10 -12 -16 -14 -21 -5 -6 8 -9 8 -14 0 -4 -6 -12 -11 -18
-11 -6 0 -6 6 2 15 11 14 10 14 -16 5 -27 -9 -28 -9 -10 5 23 17 42 19 51 5z
m1242 -42 c-3 -8 -6 -5 -6 6 -1 11 2 17 5 13 3 -3 4 -12 1 -19z m-1280 -23
c-4 -8 -11 -15 -17 -15 -7 0 -7 6 0 21 13 23 26 19 17 -6z m1773 5 c0 -5 9 -6
19 -3 11 3 28 0 38 -7 14 -9 15 -10 1 -6 -9 2 -26 -4 -38 -14 -12 -10 -28 -16
-36 -13 -8 3 -14 0 -14 -6 0 -6 -7 -11 -16 -11 -10 0 -14 6 -11 14 3 8 1 16
-5 18 -7 3 -9 11 -6 19 6 14 68 22 68 9z m67 -51 c-20 -5 -56 -18 -78 -30 -58
-29 -59 -18 -1 14 27 15 62 26 82 26 l35 -1 -38 -9z m-621 -36 c-9 29 2 19 28
-25 76 -133 72 -525 -7 -718 -30 -74 -86 -169 -99 -170 -18 0 -11 40 13 85 71
130 95 260 92 500 -1 129 -18 242 -49 330 l-7 20 17 -20 c15 -17 17 -17 12 -2z
m171 -168 c3 -22 3 -37 -1 -33 -8 6 -37 135 -35 153 2 16 29 -76 36 -120z
m-482 103 c4 -4 0 -14 -8 -23 -19 -18 -77 -20 -78 -2 0 10 -2 10 -6 0 -6 -15
-53 -18 -53 -3 0 5 8 7 18 4 13 -5 14 -4 3 4 -7 5 -11 14 -8 18 6 11 122 12
132 2z m1535 -36 c6 -7 8 -16 5 -21 -3 -6 -1 -31 5 -58 8 -33 8 -49 0 -51 -5
-2 -7 -8 -4 -13 3 -6 2 -18 -2 -27 -4 -9 -8 -37 -9 -62 -1 -52 -31 -119 -76
-170 -17 -19 -43 -50 -57 -68 -25 -33 -46 -47 -137 -90 -53 -25 -52 -23 10 25
23 18 52 54 68 86 28 56 72 196 64 204 -3 2 -1 20 3 40 5 20 4 46 -1 61 -5 13
-8 27 -5 29 2 3 34 11 70 19 60 14 64 17 57 37 -9 24 -24 25 -99 5 -23 -6 -45
-9 -47 -6 -3 2 -11 25 -19 50 l-14 46 52 -5 c28 -3 62 0 76 5 20 8 28 7 37 -6
7 -10 17 -23 23 -30z m68 -14 c1 -29 5 -61 8 -70 3 -12 0 -18 -10 -18 -13 0
-16 13 -16 70 0 81 15 95 18 18z m-249 -65 c8 -27 16 -54 19 -60 2 -7 0 -13
-6 -13 -5 0 -16 27 -24 60 -17 71 -8 81 11 13z m1951 27 c0 -5 -4 -10 -9 -10
-6 0 -13 5 -16 10 -3 6 1 10 9 10 9 0 16 -4 16 -10z m-67 -27 c-7 -2 -19 -2
-25 0 -7 3 -2 5 12 5 14 0 19 -2 13 -5z m-2746 -55 c-3 -8 -6 -5 -6 6 -1 11 2
17 5 13 3 -3 4 -12 1 -19z m-707 -18 c0 -5 -5 -10 -11 -10 -5 0 -7 5 -4 10 3
6 8 10 11 10 2 0 4 -4 4 -10z m2943 -7 c-13 -2 -33 -2 -45 0 -13 2 -3 4 22 4
25 0 35 -2 23 -4z m-338 -53 c-4 -17 -9 -30 -11 -27 -2 2 -1 18 2 36 4 17 9
30 11 27 3 -2 2 -19 -2 -36z m-1046 -32 c-1 -68 -6 -61 -11 15 -2 26 0 47 4
47 5 0 7 -28 7 -62z m204 47 c-3 -9 -8 -14 -10 -11 -3 3 -2 9 2 15 9 16 15 13
8 -4z m-216 -147 c-3 -7 -5 -2 -5 12 0 14 2 19 5 13 2 -7 2 -19 0 -25z m-2281
-75 c56 -54 106 -108 113 -120 13 -26 9 -69 -12 -133 -14 -41 -19 -66 -32
-165 -2 -17 4 -6 15 25 21 62 26 47 8 -29 -10 -44 -14 -50 -32 -45 -12 3 -38
-2 -58 -11 -48 -20 -48 -20 -48 13 0 31 -29 137 -35 130 -3 -2 0 -20 5 -39 4
-19 11 -58 15 -86 6 -50 6 -53 -15 -53 -11 0 -19 -4 -16 -9 3 -5 -2 -8 -12 -7
-10 0 -24 -13 -35 -34 -17 -33 -18 -71 -5 -164 4 -26 -29 -30 -43 -5 -5 11 -7
24 -4 29 3 6 1 10 -4 10 -15 0 -14 103 2 119 10 10 9 11 -5 6 -10 -4 -18 -12
-18 -19 0 -6 -13 -20 -28 -30 l-27 -19 25 28 c23 26 24 27 3 14 -23 -14 -53
-75 -53 -107 0 -10 6 -41 14 -70 7 -29 9 -55 4 -58 -4 -3 -6 -10 -3 -15 4 -5
2 -9 -4 -9 -7 0 -7 -9 0 -27 8 -21 7 -25 -1 -17 -6 6 -12 21 -13 33 -1 11 -4
21 -8 21 -12 0 -39 104 -39 148 0 23 -4 43 -9 46 -5 4 -7 -4 -4 -15 4 -16 2
-20 -8 -17 -8 3 -13 12 -11 20 6 34 -104 37 -273 8 -113 -19 -157 -33 -152
-48 1 -4 -10 -23 -26 -43 -30 -40 -35 -58 -10 -38 9 8 7 0 -7 -18 -21 -30 -39
-46 -26 -24 4 5 3 17 0 26 -6 14 -10 11 -27 -15 -11 -17 -23 -46 -27 -63 l-8
-32 -1 32 c-1 17 4 35 9 38 23 14 6 23 -64 36 l-75 13 21 30 c29 43 80 96 91
96 6 0 -14 -26 -44 -57 -36 -38 -49 -58 -40 -61 8 -3 18 3 23 12 5 9 36 43 68
75 37 37 72 86 96 132 20 41 61 101 92 134 62 67 86 116 77 154 -3 16 -2 21 3
13 10 -15 45 65 35 81 -3 6 -1 7 4 4 6 -4 29 20 52 52 88 127 184 186 335 206
155 21 139 27 252 -82z m-476 64 c0 -2 -18 -21 -40 -42 -22 -21 -40 -35 -40
-31 0 5 17 24 37 42 35 32 43 38 43 31z m1910 -89 c-16 -66 -66 -199 -85 -224
-8 -10 6 33 30 96 24 63 46 132 50 153 4 21 10 36 12 33 3 -3 0 -29 -7 -58z
m800 -21 c0 -2 -12 -14 -27 -28 l-28 -24 24 28 c23 25 31 32 31 24z m-2850
-47 c-12 -16 -24 -30 -26 -30 -7 0 5 20 24 43 24 27 25 20 2 -13z m3295 2 c-3
-3 -11 0 -18 7 -9 10 -8 11 6 5 10 -3 15 -9 12 -12z m-3375 -138 c-10 -21 -19
-35 -20 -31 0 14 30 80 35 75 3 -2 -4 -22 -15 -44z m2558 -119 c-3 -3 -9 2
-12 12 -6 14 -5 15 5 6 7 -7 10 -15 7 -18z m-608 -45 c-22 -33 -43 -60 -47
-60 -6 0 18 39 54 88 41 55 36 35 -7 -28z m466 8 c5 -8 2 -9 -11 -4 -24 9 -52
-1 -59 -21 -6 -14 -4 -14 11 -2 15 12 16 12 10 -4 -4 -11 -3 -16 3 -12 14 9
12 -9 -2 -24 -11 -10 -10 -11 4 -6 13 5 16 1 14 -24 -3 -37 -14 -50 -26 -31
-6 9 -10 10 -10 3 0 -6 4 -14 9 -18 5 -3 7 -21 4 -40 -5 -33 8 -48 21 -26 3 5
15 7 26 4 28 -7 7 -33 -29 -34 l-26 -1 25 -7 c24 -7 24 -7 5 -19 -11 -6 -15
-12 -8 -12 6 0 15 5 18 11 4 5 12 8 18 6 7 -2 18 10 25 26 7 17 15 27 18 24 4
-4 -1 -22 -10 -40 -17 -38 -58 -54 -77 -31 -25 30 -74 2 -75 -41 0 -11 -4 -30
-7 -41 -6 -16 -3 -23 10 -28 10 -4 14 -4 10 0 -10 10 31 37 44 28 6 -3 3 5 -6
20 -10 14 -24 26 -33 26 -8 0 -12 3 -8 7 11 11 76 11 76 0 0 -5 7 -4 15 3 17
14 17 14 32 -14 18 -32 -11 -97 -62 -140 -25 -20 -45 -44 -45 -51 0 -24 31
-17 64 13 17 15 24 19 17 10 -10 -14 -10 -18 -1 -18 7 0 2 -11 -11 -25 -29
-30 -87 -44 -100 -24 -12 19 -11 42 1 34 6 -3 7 1 4 9 -3 9 -1 16 6 16 6 0 9
4 5 9 -3 5 10 24 29 43 46 43 49 59 11 64 -18 2 -25 0 -17 -5 10 -6 5 -16 -17
-40 -17 -18 -31 -39 -31 -47 0 -8 -9 -14 -20 -14 -17 0 -19 -3 -11 -17 7 -14
4 -20 -21 -30 -33 -14 -53 -9 -41 10 10 16 11 57 1 57 -13 0 -9 47 5 62 18 19
20 58 2 58 -9 0 -15 -9 -15 -22 0 -13 -5 -30 -11 -38 -9 -12 -10 -11 -6 7 7
30 -17 19 -35 -15 -14 -28 -42 -40 -53 -22 -3 5 6 15 22 21 25 9 26 12 11 20
-10 6 -18 17 -18 24 0 8 -4 15 -10 15 -5 0 -10 -7 -10 -15 0 -8 -4 -15 -10
-15 -5 0 -10 6 -10 13 0 6 -3 23 -6 37 -4 18 -3 21 4 11 6 -8 17 -11 25 -8 9
3 21 -1 27 -9 7 -8 19 -14 28 -14 12 0 11 4 -6 20 -35 33 -38 65 -17 175 4 16
10 34 16 41 5 6 6 14 2 17 -3 4 -1 7 6 7 7 0 10 -7 7 -17 -12 -40 -14 -73 -5
-73 6 0 7 -5 4 -10 -4 -6 -11 -7 -17 -4 -7 4 -8 2 -4 -5 4 -6 11 -9 16 -6 8 5
25 -23 22 -37 -2 -8 13 -11 22 -5 2 1 14 -7 27 -18 12 -11 20 -15 16 -9 -11
19 40 39 71 28 15 -5 35 -8 45 -6 15 3 16 6 6 18 -9 11 -9 18 -1 26 7 7 12 19
12 28 0 8 -8 2 -19 -15 -12 -20 -14 -32 -7 -37 6 -4 1 -6 -12 -5 -12 0 -22 5
-22 9 0 7 -34 3 -49 -6 -5 -4 -17 -3 -26 0 -12 5 -13 9 -5 14 9 5 2 17 -20 38
-29 28 -31 35 -25 72 4 23 13 44 21 47 8 3 14 12 14 20 0 18 66 46 108 46 17
-1 32 2 32 5 0 12 69 12 76 0z m-2683 -33 c-3 -9 -8 -14 -10 -11 -3 3 -2 9 2
15 9 16 15 13 8 -4z m117 -18 c0 -28 -50 -66 -102 -77 -65 -13 -77 -22 -117
-85 -40 -64 -39 -55 6 36 20 41 36 80 36 87 0 6 10 12 21 13 16 0 142 31 154
38 1 0 2 -5 2 -12z m3180 3 c0 -5 -2 -10 -4 -10 -3 0 -8 5 -11 10 -3 6 -1 10
4 10 6 0 11 -4 11 -10z m-3326 -8 c3 -5 -1 -9 -9 -9 -8 0 -12 4 -9 9 3 4 7 8
9 8 2 0 6 -4 9 -8z m169 -37 c-20 -25 -39 -45 -41 -45 -11 0 59 89 71 89 4 1
-9 -19 -30 -44z m1417 -10 c-33 -19 -46 -19 -30 0 7 8 22 15 34 15 20 -1 20
-2 -4 -15z m-1474 -93 c-8 -16 -13 -32 -10 -35 3 -3 -4 -11 -16 -17 -12 -7
-21 -8 -18 -3 24 54 53 102 56 94 2 -5 -4 -23 -12 -39z m2079 28 c3 -5 1 -10
-4 -10 -6 0 -11 5 -11 10 0 6 2 10 4 10 3 0 8 -4 11 -10z m960 -20 c-3 -5 -10
-10 -16 -10 -5 0 -9 5 -9 10 0 6 7 10 16 10 8 0 12 -4 9 -10z m-925 -60 c0 -5
-2 -10 -4 -10 -3 0 -8 5 -11 10 -3 6 -1 10 4 10 6 0 11 -4 11 -10z m-2340 -24
c0 -3 -4 -8 -10 -11 -5 -3 -10 -1 -10 4 0 6 5 11 10 11 6 0 10 -2 10 -4z m30
-25 c0 -4 -19 -16 -42 -25 -24 -9 -52 -28 -62 -43 -12 -16 -14 -23 -5 -17 8 4
19 9 24 11 6 1 20 4 32 7 13 3 25 1 28 -4 7 -12 -45 -51 -59 -43 -6 3 -8 3 -4
-2 8 -9 -36 -35 -59 -35 -18 0 -10 30 22 80 21 34 55 69 55 57 0 -3 12 1 28 9
31 16 42 18 42 5z m380 6 c0 -16 -40 -46 -54 -41 -24 9 -20 21 12 32 30 11 42
14 42 9z m2770 -1 c0 -2 -7 -7 -16 -10 -8 -3 -12 -2 -9 4 6 10 25 14 25 6z
m-86 -61 c5 -22 4 -26 -4 -15 -5 8 -10 24 -10 34 0 26 6 18 14 -19z m-2114
-25 c0 -5 -5 -10 -11 -10 -5 0 -7 5 -4 10 3 6 8 10 11 10 2 0 4 -4 4 -10z
m1882 -22 c-7 -7 -12 -8 -12 -2 0 14 12 26 19 19 2 -3 -1 -11 -7 -17z m250 -2
c7 4 8 2 4 -5 -9 -13 -26 -5 -25 12 0 9 2 8 6 -1 2 -6 10 -9 15 -6z m-682 -16
c0 -5 -2 -10 -4 -10 -3 0 -8 5 -11 10 -3 6 -1 10 4 10 6 0 11 -4 11 -10z
m-2435 -27 c-40 -61 -56 -93 -51 -102 3 -5 -1 -14 -10 -21 -12 -11 -17 -11
-27 0 -7 8 -8 11 -1 7 10 -6 44 62 44 88 0 8 49 54 59 55 2 0 -5 -12 -14 -27z
m1510 -41 c2 -12 0 -24 -4 -26 -4 -3 -8 0 -9 7 0 7 -3 23 -6 36 -4 16 -2 21 4
15 6 -6 12 -20 15 -32z m-66 21 c0 -5 -4 -17 -9 -28 -8 -17 -8 -16 -7 8 1 15
5 27 9 27 4 0 8 -3 7 -7z m1025 -33 c-6 -5 -24 21 -24 34 0 6 6 1 14 -10 8
-10 12 -21 10 -24z m-1054 26 c0 -3 -15 -14 -32 -26 l-33 -22 28 26 c27 25 37
31 37 22z m50 -21 c0 -8 -4 -15 -10 -15 -5 0 -10 7 -10 15 0 8 5 15 10 15 6 0
10 -7 10 -15z m-10 -44 c-5 -11 -15 -23 -20 -26 -6 -4 -8 -15 -5 -25 4 -13 -2
-21 -26 -29 -39 -13 -49 -14 -29 -1 13 8 12 10 -3 10 -10 0 -27 -5 -38 -10
-10 -6 -19 -7 -19 -3 0 8 14 21 75 73 l30 25 -18 -27 c-18 -28 -23 -58 -9 -58
9 0 48 71 45 82 -2 4 4 8 12 8 12 0 14 -4 5 -19z m1040 -1 c0 -5 -2 -10 -4
-10 -3 0 -8 5 -11 10 -3 6 -1 10 4 10 6 0 11 -4 11 -10z m355 -13 c7 2 15 -3
17 -13 4 -21 -8 -156 -18 -199 -3 -16 -6 -47 -5 -68 1 -41 -28 -121 -36 -99
-3 6 -9 12 -14 12 -6 0 -9 -6 -7 -12 1 -7 -3 -23 -10 -35 -17 -31 7 -36 49
-11 27 16 49 20 100 19 41 -1 83 4 110 14 58 22 89 29 89 21 0 -33 -65 -75
-159 -101 -13 -4 -44 -22 -68 -41 -25 -19 -57 -37 -71 -40 -15 -4 -34 -13 -43
-20 -13 -12 -19 -11 -37 9 -31 33 -38 74 -17 97 16 18 15 19 -32 14 l-48 -4
-73 95 c-80 104 -85 128 -30 140 23 5 27 9 17 16 -11 7 -10 9 5 9 18 0 17 1
-3 19 l-23 20 40 -4 c22 -2 53 -10 69 -18 68 -35 68 -35 99 53 15 45 38 92 50
105 12 13 21 26 20 28 -2 3 1 1 7 -3 5 -5 15 -6 22 -3z m-1308 -13 c-3 -3 -12
-4 -19 -1 -8 3 -5 6 6 6 11 1 17 -2 13 -5z m-1653 -39 c-9 -14 -18 -25 -20
-25 -2 0 2 11 8 25 6 14 15 25 20 25 5 0 1 -11 -8 -25z m57 8 c-12 -10 -33
-31 -47 -48 l-26 -30 23 35 c24 37 47 60 62 60 5 0 0 -8 -12 -17z m1595 8 c-3
-5 -15 -7 -26 -4 -12 3 -20 0 -20 -6 0 -7 3 -10 8 -8 4 3 16 1 27 -4 19 -7 19
-8 -2 -8 -37 -2 -55 9 -42 25 12 15 64 20 55 5z m993 -41 c5 -16 7 -30 3 -30
-4 0 -13 14 -19 30 -6 17 -8 30 -3 30 4 0 13 -13 19 -30z m-1030 4 c17 -4 31
-11 31 -16 0 -10 -17 -8 -52 7 -13 5 -18 2 -18 -10 0 -9 -4 -13 -10 -10 -5 3
-10 1 -10 -4 0 -6 7 -11 15 -11 8 0 12 -6 9 -15 -4 -10 -20 -13 -59 -12 -56 2
-79 12 -52 23 15 5 14 8 -6 25 -12 10 -17 18 -11 19 5 0 15 -5 22 -12 8 -8 15
-8 27 2 12 10 19 10 28 1 9 -9 9 -14 -3 -21 -8 -5 -10 -10 -4 -10 6 0 20 11
30 25 21 28 19 27 63 19z m-240 -18 c-2 -2 -15 -9 -29 -15 -24 -11 -24 -11 -6
3 16 13 49 24 35 12z m58 -24 c-15 -2 -25 -8 -22 -13 3 -5 -1 -6 -10 -3 -14 6
-14 8 1 19 10 7 27 10 38 6 18 -5 18 -6 -7 -9z m173 8 c0 -5 -4 -10 -10 -10
-5 0 -10 5 -10 10 0 6 5 10 10 10 6 0 10 -4 10 -10z m70 -5 c0 -8 -3 -14 -7
-13 -5 0 -15 -1 -23 -5 -8 -3 -22 -8 -30 -10 -9 -4 -6 -6 8 -6 32 -1 27 -16
-6 -16 -22 0 -28 4 -24 17 2 10 11 23 20 30 12 10 14 10 8 1 -10 -18 9 -16 24
2 7 8 16 15 21 15 5 0 9 -7 9 -15z m-126 -56 c-3 -5 0 -9 7 -9 7 0 9 -3 6 -6
-4 -4 -13 -1 -21 5 -10 8 -16 9 -21 1 -3 -5 -16 -10 -28 -9 -20 1 -19 2 6 13
15 7 25 15 21 18 -3 4 3 4 15 1 11 -3 18 -9 15 -14z m144 -1 c-2 -6 -12 -12
-22 -14 -14 -2 -15 0 -5 12 14 17 32 19 27 2z m-179 -41 c13 -16 -4 -37 -28
-36 -9 0 -6 4 8 10 23 9 24 10 5 24 -10 8 -14 15 -8 15 6 0 16 -6 23 -13z m41
-11 c0 -2 -8 -10 -17 -17 -16 -13 -17 -12 -4 4 13 16 21 21 21 13z m20 -66 c0
-5 -5 -10 -11 -10 -5 0 -7 5 -4 10 3 6 8 10 11 10 2 0 4 -4 4 -10z m10 -34 c0
-3 -4 -8 -10 -11 -5 -3 -10 -1 -10 4 0 6 5 11 10 11 6 0 10 -2 10 -4z m1784
-89 c9 -15 7 -21 -9 -33 -76 -55 -145 -107 -173 -132 -34 -29 -106 -52 -167
-52 -36 0 -58 -19 -53 -47 2 -14 119 -87 147 -92 2 -1 2 -4 -1 -7 -3 -3 -44
16 -91 43 -59 33 -88 55 -92 70 -3 13 -12 23 -20 23 -8 0 -15 5 -15 10 0 6 12
10 26 10 14 0 38 6 52 14 15 8 52 26 82 40 81 37 151 77 185 108 84 74 106 82
129 45z m-3707 -119 c-3 -7 -5 -2 -5 12 0 14 2 19 5 13 2 -7 2 -19 0 -25z m30
0 c-3 -8 -6 -5 -6 6 -1 11 2 17 5 13 3 -3 4 -12 1 -19z m3058 -29 c9 -17 14
-33 11 -37 -3 -3 -6 1 -6 9 0 12 -2 11 -11 -1 -9 -12 -10 -12 -5 3 3 10 1 27
-4 38 -6 10 -8 19 -6 19 3 0 13 -14 21 -31z m-3016 -33 c-3 -3 -11 5 -18 17
-13 21 -12 21 5 5 10 -10 16 -20 13 -22z m3056 -38 c5 4 5 1 1 -6 -6 -10 -11
-10 -22 -1 -8 6 -14 14 -14 16 0 3 6 0 13 -6 8 -6 18 -7 22 -3z m-3055 -29 c0
-6 -4 -7 -10 -4 -5 3 -10 11 -10 16 0 6 5 7 10 4 6 -3 10 -11 10 -16z m3124
-30 c-9 -15 -23 -10 -34 11 -10 18 -9 19 14 8 14 -6 23 -15 20 -19z m-3077
-21 c-3 -8 -6 -5 -6 6 -1 11 2 17 5 13 3 -3 4 -12 1 -19z m688 -258 c3 5 11
10 17 10 6 0 3 -9 -7 -20 -23 -25 -27 -25 -43 1 -12 19 -11 19 7 10 13 -7 22
-8 26 -1z m25 -35 c-7 -8 -17 -15 -23 -15 -5 0 -2 9 8 20 21 23 35 19 15 -5z
m2974 -280 c3 -8 1 -15 -4 -15 -6 0 -10 7 -10 15 0 8 2 15 4 15 2 0 6 -7 10
-15z m-1561 -2 c-13 -2 -35 -2 -50 0 -16 2 -5 4 22 4 28 0 40 -2 28 -4z m-770
-70 c-13 -2 -33 -2 -45 0 -13 2 -3 4 22 4 25 0 35 -2 23 -4z m334 -123 c20 0
33 -3 30 -7 -4 -3 -24 -6 -44 -5 l-38 0 45 -14 c42 -14 84 -20 168 -23 28 -1
32 -4 27 -20 -5 -16 1 -21 32 -31 21 -6 47 -15 58 -20 36 -16 99 -29 173 -36
40 -4 75 -11 78 -15 3 -5 15 -9 27 -10 43 -2 -98 -39 -190 -50 -64 -8 -110 -8
-150 -1 -75 13 -315 101 -307 113 3 5 11 9 18 9 7 0 21 9 31 20 17 19 17 21 0
40 -24 26 -55 26 -55 0 0 -11 -7 -23 -15 -26 -11 -5 -12 -11 -4 -25 13 -25 2
-24 -44 4 l-38 23 28 15 c15 7 34 22 41 32 7 9 26 17 43 17 21 0 28 4 23 12
-5 8 -2 9 10 5 10 -4 34 -7 53 -7z m130 4 c-3 -3 -12 -4 -19 -1 -8 3 -5 6 6 6
11 1 17 -2 13 -5z m903 -43 c0 -5 -7 -12 -16 -15 -14 -5 -15 -4 -4 9 14 17 20
19 20 6z m-1110 -30 c-6 -12 -15 -21 -21 -21 -5 0 -2 11 7 25 20 30 31 26 14
-4z m32 -13 c-15 -15 -26 -4 -18 18 5 13 9 15 18 6 9 -9 9 -15 0 -24z m-301 1
c15 -8 24 -8 32 0 15 15 62 14 74 -1 6 -7 10 -21 10 -30 0 -14 -3 -15 -14 -6
-12 10 -14 1 -11 -55 1 -36 0 -69 -4 -72 -4 -4 -21 0 -39 9 -26 13 -35 14 -48
3 -14 -11 -14 -10 -2 6 8 9 10 21 6 25 -4 4 -10 1 -12 -5 -7 -20 -22 -15 -50
15 -33 36 -66 100 -59 118 6 16 83 12 117 -7z m-150 -14 c1 -8 2 -18 3 -22 1
-5 6 -24 10 -43 5 -19 13 -40 18 -47 5 -7 6 -18 2 -25 -4 -7 -4 -10 1 -6 9 9
36 -23 29 -34 -14 -23 -51 22 -58 69 -3 16 -9 44 -15 63 -6 19 -11 41 -11 47
0 18 20 16 21 -2z m48 -60 c20 -47 20 -49 1 -25 -11 14 -20 30 -20 37 0 6 -3
20 -7 30 -13 36 5 7 26 -42z m1150 31 c-2 -2 -30 -16 -63 -30 -38 -17 -54 -21
-46 -11 10 12 9 15 -6 15 -14 0 -15 3 -6 12 10 10 15 10 20 1 6 -9 17 -9 47 2
40 14 62 19 54 11z m-1249 -95 c3 -4 16 -12 30 -19 l25 -12 -25 6 c-24 6 -24
6 -7 -13 9 -11 17 -25 17 -31 0 -7 -7 -9 -17 -5 -26 9 -102 73 -114 94 -9 17
-7 17 38 2 27 -9 50 -19 53 -22z m210 -101 c0 -5 -5 -10 -11 -10 -5 0 -7 5 -4
10 3 6 8 10 11 10 2 0 4 -4 4 -10z m1498 -220 c3 -9 -1 -11 -12 -7 -9 4 -15 3
-12 -2 3 -5 -11 -11 -32 -13 -20 -3 -39 -1 -40 4 -2 4 -11 15 -19 24 -15 14
-10 15 47 12 42 -3 65 -8 68 -18z m-262 -9 c-3 -5 -16 -11 -28 -14 -22 -6 -22
-5 -4 8 22 17 40 20 32 6z m237 -48 c-7 -2 -19 -2 -25 0 -7 3 -2 5 12 5 14 0
19 -2 13 -5z m-112 -42 l24 -19 -30 -7 c-16 -4 -59 -16 -93 -27 -47 -15 -67
-17 -75 -9 -8 8 -8 11 2 11 7 0 10 4 7 8 -6 10 20 25 79 46 53 19 59 19 86 -3z
m-1876 -1 c-3 -5 -13 -10 -21 -10 -8 0 -13 -4 -10 -9 3 -5 16 -7 29 -5 22 5
22 5 -1 -6 -13 -5 -20 -15 -17 -20 4 -7 11 -8 18 -1 9 7 12 1 13 -21 1 -20 -2
-25 -7 -16 -6 9 -9 9 -9 1 0 -7 -9 -10 -22 -7 -13 2 -33 6 -45 8 -13 3 -27 7
-33 11 -17 10 -11 -7 14 -44 13 -20 27 -47 30 -61 3 -14 3 -20 0 -13 -3 7 -14
9 -34 3 -44 -13 -81 22 -104 97 -8 26 6 35 119 74 95 33 88 31 80 19z m2078
-47 c-7 -2 -19 -2 -25 0 -7 3 -2 5 12 5 14 0 19 -2 13 -5z m146 -52 c11 -7 21
-15 21 -19 0 -5 14 -23 31 -40 17 -18 26 -32 19 -32 -6 0 -19 8 -28 19 -13 14
-23 16 -42 11 l-25 -8 28 -1 c15 -1 27 -5 27 -9 0 -4 -16 -6 -35 -4 -19 2 -32
8 -29 13 3 5 -1 9 -10 9 -16 0 -69 58 -62 68 6 11 81 5 105 -7z m-2463 -46 c8
-16 9 -21 2 -11 -7 11 -20 27 -30 37 -9 9 -14 20 -10 23 6 7 16 -6 38 -49z
m2629 19 c11 -4 25 -6 31 -5 10 1 45 -45 72 -96 11 -19 9 -21 -11 -16 -67 15
-87 26 -108 61 -13 20 -29 47 -37 60 -14 22 -14 23 9 13 13 -5 33 -13 44 -17z
m-382 4 c15 -7 27 -15 27 -18 0 -3 -36 -13 -81 -22 -45 -9 -100 -26 -122 -37
-30 -15 -44 -18 -52 -9 -7 7 -7 9 1 5 14 -8 54 20 54 38 0 8 6 17 13 22 9 6
92 27 128 32 3 1 17 -5 32 -11z m597 -124 c0 -1 12 -28 26 -60 l26 -59 -41 39
c-22 21 -54 66 -72 99 l-32 61 46 -39 c26 -22 47 -40 47 -41z m585 66 c-3 -5
-11 -10 -16 -10 -6 0 -7 5 -4 10 3 6 11 10 16 10 6 0 7 -4 4 -10z m-1072 -33
c18 -8 38 -22 46 -31 13 -16 11 -17 -35 -15 -100 4 -221 -22 -240 -52 -5 -9
-54 10 -54 22 0 15 135 72 190 79 30 4 56 8 58 9 1 0 17 -5 35 -12z m98 -14
c13 -17 13 -17 -6 -3 -11 8 -22 16 -24 17 -2 2 0 3 6 3 6 0 17 -8 24 -17z
m-441 -3 c0 -5 -5 -10 -11 -10 -5 0 -7 5 -4 10 3 6 8 10 11 10 2 0 4 -4 4 -10z
m601 -30 c6 0 8 4 5 9 -3 5 30 -3 73 -18 63 -21 93 -38 145 -84 35 -31 75 -72
88 -90 12 -17 -4 -5 -37 29 -78 78 -160 119 -306 150 -63 13 -94 22 -69 19 25
-2 52 0 60 5 10 6 17 4 23 -5 4 -8 13 -15 18 -15z m34 -51 c76 -14 173 -58
205 -94 23 -25 21 -24 -27 8 -83 56 -162 79 -282 83 -57 2 -106 6 -109 9 -10
9 154 5 213 -6z m-640 -75 c13 -5 14 -8 3 -15 -19 -12 -25 -11 -25 6 0 17 0
17 22 9z m929 -30 c3 -8 2 -12 -4 -9 -6 3 -10 10 -10 16 0 14 7 11 14 -7z
m-854 -18 c0 -2 -7 -7 -16 -10 -8 -3 -12 -2 -9 4 6 10 25 14 25 6z m954 -133
c8 -24 13 -43 11 -43 -7 0 -61 111 -69 140 -11 40 41 -47 58 -97z m-3079 -95
c-10 -13 -14 -16 -11 -8 3 8 9 24 13 35 4 11 8 14 11 7 2 -6 -4 -22 -13 -34z
m185 17 c11 -13 10 -14 -4 -9 -9 3 -16 10 -16 15 0 13 6 11 20 -6z m-156 -50
c3 -8 1 -15 -4 -15 -6 0 -10 7 -10 15 0 8 2 15 4 15 2 0 6 -7 10 -15z m98 -5
c6 0 7 -7 4 -16 -3 -8 -2 -12 4 -9 6 3 10 2 10 -4 0 -15 -58 -10 -65 6 -7 20
4 35 22 29 8 -3 19 -6 25 -6z m2002 -29 c4 -5 -3 -7 -14 -4 -23 6 -26 13 -6
13 8 0 17 -4 20 -9z m-2043 -128 c13 -16 12 -17 -3 -4 -10 7 -18 15 -18 17 0
8 8 3 21 -13z m-52 -87 c-11 -20 -25 -33 -30 -30 -5 3 -9 -3 -9 -13 0 -15 -2
-16 -10 -3 -13 20 -13 33 0 25 6 -3 10 -1 10 4 0 6 -5 11 -12 11 -6 0 -8 3 -5
6 4 4 13 1 22 -6 12 -10 16 -9 22 6 8 20 26 44 31 39 2 -1 -7 -19 -19 -39z
m2746 -36 c8 -25 -19 -70 -41 -70 -8 0 -12 5 -9 10 3 6 2 10 -4 10 -5 0 -8 15
-6 33 3 19 1 27 -4 19 -7 -11 -9 -10 -14 3 -5 11 1 18 16 24 27 11 53 -2 62
-29z m-817 -110 c0 -8 -6 1 -13 20 -7 19 -13 42 -13 50 0 8 6 -1 13 -20 7 -19
13 -42 13 -50z m97 40 c-3 -5 -15 -10 -26 -10 -10 0 -19 5 -19 10 0 6 12 10
26 10 14 0 23 -4 19 -10z m-2252 -265 c-3 -9 -8 -14 -10 -11 -3 3 -2 9 2 15 9
16 15 13 8 -4z m2222 -25 c3 -5 1 -10 -4 -10 -6 0 -11 5 -11 10 0 6 2 10 4 10
3 0 8 -4 11 -10z m-2185 -30 c-6 -12 -14 -19 -17 -17 -2 3 1 15 7 27 6 12 14
19 17 17 2 -3 -1 -15 -7 -27z m1862 -72 c-7 -7 -12 -8 -12 -2 0 6 3 14 7 17 3
4 9 5 12 2 2 -3 -1 -11 -7 -17z m620 -98 c37 -11 38 -12 35 -53 -4 -45 -11
-49 -69 -34 -22 6 -28 4 -28 -8 0 -8 -7 -15 -16 -15 -11 0 -14 5 -10 16 3 9 6
36 6 60 0 39 3 44 23 44 12 0 39 -5 59 -10z m222 -41 c15 -14 8 -103 -10 -115
-15 -12 -80 -8 -121 7 -19 7 -21 14 -19 61 2 29 4 57 5 62 1 10 133 -2 145
-15z m79 -54 l-6 -55 47 0 c35 0 46 -4 46 -15 0 -13 -11 -15 -62 -13 l-63 3
-3 44 c-5 61 4 91 27 91 18 0 19 -6 14 -55z m147 23 c0 -69 -12 -108 -31 -108
-21 0 -23 17 -13 94 5 36 11 46 25 46 15 0 19 -7 19 -32z m-3103 -70 c-3 -8
-6 -5 -6 6 -1 11 2 17 5 13 3 -3 4 -12 1 -19z m873 -142 c0 -2 -7 -9 -15 -16
-12 -10 -15 -10 -15 4 0 9 7 16 15 16 8 0 15 -2 15 -4z m-31 -61 c0 -5 -4 -3
-9 5 -5 8 -9 22 -9 30 0 16 17 -16 18 -35z m48 -57 c-3 -8 -6 -5 -6 6 -1 11 2
17 5 13 3 -3 4 -12 1 -19z m984 -241 c-10 -19 -21 -45 -23 -58 -2 -14 -6 -19
-10 -13 -7 11 39 120 48 112 3 -3 -4 -21 -15 -41z m-60 -165 c-6 -10 -7 -22
-3 -26 3 -4 -1 -4 -10 -1 -17 7 -14 35 4 35 6 0 7 8 3 18 -5 13 -3 14 5 6 9
-9 9 -17 1 -32z m22 -7 c-3 -9 -8 -14 -10 -11 -3 3 -2 9 2 15 9 16 15 13 8 -4z
m-816 -202 c-3 -10 -5 -2 -5 17 0 19 2 27 5 18 2 -10 2 -26 0 -35z m1320 -79
c-3 -3 -12 -4 -19 -1 -8 3 -5 6 6 6 11 1 17 -2 13 -5z m-532 -121 c14 -90 29
-150 46 -184 42 -84 108 -136 186 -147 42 -6 46 -10 47 -34 2 -24 -2 -28 -28
-28 -91 0 -191 74 -237 175 -36 80 -66 235 -47 246 22 14 27 10 33 -28z m521
-99 c-20 -21 -36 -33 -36 -27 0 12 61 75 68 69 2 -2 -13 -21 -32 -42z m104 12
c0 -3 -4 -8 -10 -11 -5 -3 -10 -1 -10 4 0 6 5 11 10 11 6 0 10 -2 10 -4z
m-675 -196 c6 -22 5 -23 -7 -10 -19 20 -38 67 -30 74 7 7 25 -25 37 -64z
m-1227 -340 c3 -9 -1 -11 -11 -7 -9 3 -18 1 -20 -6 -2 -7 -8 -9 -12 -5 -10 10
15 40 28 35 6 -2 13 -9 15 -17z m177 -370 c-9 -16 -18 -30 -20 -30 -6 0 6 32
18 48 17 22 18 13 2 -18z m-54 -125 c-15 -48 -20 -55 -28 -40 -12 20 -5 58 8
49 5 -3 14 9 20 26 19 54 19 27 0 -35z m-24 -91 c-3 -3 -12 -4 -19 -1 -8 3 -5
6 6 6 11 1 17 -2 13 -5z m58 -243 c3 -5 1 -12 -5 -16 -5 -3 -10 1 -10 9 0 18
6 21 15 7z m-322 -198 c-7 -2 -19 -2 -25 0 -7 3 -2 5 12 5 14 0 19 -2 13 -5z"/>
<path d="M3733 9041 c-20 -32 -75 -54 -106 -42 -15 6 -27 7 -27 2 0 -16 -29
-20 -44 -6 -22 23 -37 -50 -18 -89 25 -48 115 -72 156 -41 19 15 19 15 -2 15
l-22 0 21 21 c17 17 23 18 36 8 23 -19 50 -21 57 -3 4 10 1 14 -6 12 -7 -3
-21 4 -32 14 -11 10 -26 18 -33 18 -22 0 -15 17 10 24 36 10 59 7 51 -6 -5 -7
-3 -8 6 -3 7 4 16 2 21 -6 6 -10 9 -3 9 22 0 36 -29 79 -53 79 -7 0 -18 -9
-24 -19z"/>
<path d="M3554 8694 c6 -24 54 -104 63 -104 9 0 -13 59 -35 93 -29 44 -37 47
-28 11z"/>
<path d="M3521 8194 c0 -11 3 -14 6 -6 3 7 2 16 -1 19 -3 4 -6 -2 -5 -13z"/>
<path d="M3732 8053 c-13 -3 -21 -10 -19 -16 2 -7 -19 -22 -47 -34 -34 -15
-44 -22 -29 -23 25 0 89 27 116 49 17 14 23 32 10 30 -5 -1 -18 -4 -31 -6z"/>
<path d="M3398 8009 c-2 -6 -32 -23 -66 -38 -56 -25 -97 -51 -80 -51 13 0 145
58 178 78 l35 22 -32 0 c-17 0 -33 -5 -35 -11z"/>
<path d="M3560 7962 c-20 -9 -54 -23 -77 -30 -23 -7 -45 -17 -48 -22 -3 -5 18
-1 48 9 59 20 138 60 122 61 -6 0 -26 -8 -45 -18z"/>
<path d="M3353 7867 c-29 -17 -53 -35 -53 -39 0 -10 86 37 110 59 24 22 -2 13
-57 -20z"/>
<path d="M3572 7869 c-24 -12 -41 -24 -38 -26 6 -6 74 26 82 38 7 13 4 12 -44
-12z"/>
<path d="M3449 7816 c-72 -36 -148 -85 -168 -110 -22 -27 -2 -18 62 27 34 24
88 58 120 76 31 18 57 34 57 37 0 6 3 7 -71 -30z"/>
<path d="M3595 7831 c-3 -5 0 -13 6 -17 7 -4 9 -3 5 4 -3 5 0 13 6 15 9 4 10
6 1 6 -6 1 -14 -3 -18 -8z"/>
<path d="M3180 7699 c0 -6 -9 -9 -20 -6 -11 3 -17 1 -14 -4 3 -5 -2 -12 -10
-15 -17 -7 -22 -24 -7 -24 5 0 17 7 25 16 9 8 16 12 16 7 0 -4 4 -3 8 3 4 6
16 16 27 22 19 11 19 11 -2 12 -13 0 -23 -5 -23 -11z"/>
<path d="M3425 7690 c-3 -5 -1 -10 4 -10 6 0 11 5 11 10 0 6 -2 10 -4 10 -3 0
-8 -4 -11 -10z"/>
<path d="M3379 7653 l-24 -28 28 24 c25 23 32 31 24 31 -2 0 -14 -12 -28 -27z"/>
<path d="M3530 7660 c0 -5 -18 -10 -40 -10 -54 0 -75 -38 -65 -119 14 -115 -1
-271 -25 -256 -5 3 -3 -7 5 -22 8 -15 15 -35 15 -43 0 -8 6 -35 14 -60 l14
-45 11 42 c9 33 15 41 29 36 15 -5 15 -4 -1 9 -15 11 -17 18 -8 38 25 58 53
214 59 323 4 64 4 117 0 117 -5 0 -8 -4 -8 -10z m-94 -405 c9 -8 11 -15 6 -15
-5 0 -15 7 -22 15 -7 8 -9 15 -6 15 4 0 14 -7 22 -15z"/>
<path d="M3315 7350 c10 -11 20 -20 23 -20 3 0 -3 9 -13 20 -10 11 -20 20 -23
20 -3 0 3 -9 13 -20z"/>
<path d="M3337 7103 c-10 -15 1 -40 20 -47 12 -5 13 -3 5 6 -5 7 -12 22 -14
33 -2 13 -6 16 -11 8z"/>
<path d="M3705 6170 c-3 -6 1 -7 9 -4 18 7 21 14 7 14 -6 0 -13 -4 -16 -10z"/>
<path d="M3230 5980 c-9 -6 -10 -10 -3 -10 6 0 15 5 18 10 8 12 4 12 -15 0z"/>
<path d="M3518 5903 c7 -3 16 -2 19 1 4 3 -2 6 -13 5 -11 0 -14 -3 -6 -6z"/>
<path d="M5370 9145 c0 -2 10 -10 23 -16 20 -11 21 -11 8 4 -13 16 -31 23 -31
12z"/>
<path d="M4770 8430 c0 -5 5 -10 10 -10 6 0 10 5 10 10 0 6 -4 10 -10 10 -5 0
-10 -4 -10 -10z"/>
<path d="M2245 7240 c-3 -6 1 -7 9 -4 18 7 21 14 7 14 -6 0 -13 -4 -16 -10z"/>
<path d="M4110 7650 c0 -6 7 -10 15 -10 8 0 15 2 15 4 0 2 -7 6 -15 10 -8 3
-15 1 -15 -4z"/>
<path d="M4115 7620 c3 -5 8 -10 11 -10 2 0 4 5 4 10 0 6 -5 10 -11 10 -5 0
-7 -4 -4 -10z"/>
<path d="M4055 7580 c3 -5 11 -10 16 -10 6 0 7 5 4 10 -3 6 -11 10 -16 10 -6
0 -7 -4 -4 -10z"/>
<path d="M4100 7562 c0 -10 20 -34 42 -51 15 -11 16 -9 14 11 -1 13 -6 29 -10
36 -8 13 -46 17 -46 4z"/>
<path d="M4026 7537 c3 -10 9 -15 12 -12 3 3 0 11 -7 18 -10 9 -11 8 -5 -6z"/>
<path d="M4072 7539 c2 -7 10 -15 17 -17 8 -3 12 1 9 9 -2 7 -10 15 -17 17 -8
3 -12 -1 -9 -9z"/>
<path d="M4046 7514 c-7 -18 42 -64 61 -57 17 7 7 27 -27 51 -24 18 -29 19
-34 6z"/>
<path d="M4130 7471 c0 -18 18 -21 30 -6 10 13 9 15 -9 15 -11 0 -21 -4 -21
-9z"/>
<path d="M3955 7410 c-4 -6 1 -7 11 -3 12 4 15 3 10 -5 -5 -8 -2 -10 9 -5 13
5 14 7 3 14 -17 11 -26 11 -33 -1z"/>
<path d="M4015 7380 c-4 -6 -12 -7 -18 -4 -7 4 -9 3 -4 -1 13 -15 46 -13 40 2
-6 16 -10 16 -18 3z"/>
<path d="M4100 7366 c0 -2 7 -7 16 -10 8 -3 12 -2 9 4 -6 10 -25 14 -25 6z"/>
<path d="M4206 7352 c-3 -5 1 -9 9 -9 8 0 12 4 9 9 -3 4 -7 8 -9 8 -2 0 -6 -4
-9 -8z"/>
<path d="M4247 7338 c-8 -29 -4 -32 11 -8 6 10 8 21 3 24 -5 3 -11 -4 -14 -16z"/>
<path d="M4095 7300 c-4 -6 -11 -7 -17 -4 -7 4 -8 2 -4 -5 6 -9 11 -9 22 0 14
11 18 19 10 19 -3 0 -8 -5 -11 -10z"/>
<path d="M4050 7261 c0 -5 5 -13 10 -16 6 -3 10 -2 10 4 0 5 -4 13 -10 16 -5
3 -10 2 -10 -4z"/>
<path d="M4060 7171 c0 -6 5 -13 10 -16 6 -3 10 1 10 9 0 9 -4 16 -10 16 -5 0
-10 -4 -10 -9z"/>
<path d="M4240 6905 c-10 -12 -10 -15 4 -15 9 0 16 7 16 15 0 8 -2 15 -4 15
-2 0 -9 -7 -16 -15z"/>
<path d="M2868 6993 c7 -3 16 -2 19 1 4 3 -2 6 -13 5 -11 0 -14 -3 -6 -6z"/>
<path d="M3014 5495 c-4 -8 -10 -13 -14 -10 -5 3 -12 -4 -15 -16 -8 -25 8 -39
47 -39 31 0 58 23 58 50 0 30 -66 43 -76 15z m66 -20 c0 -8 -7 -15 -15 -15 -9
0 -12 6 -9 15 4 8 10 15 15 15 5 0 9 -7 9 -15z m-46 -17 c-3 -4 -9 -8 -15 -8
-5 0 -9 4 -9 8 0 5 7 9 15 9 8 0 12 -4 9 -9z"/>
<path d="M2480 5492 c12 -18 25 -31 28 -27 3 3 -7 18 -23 33 l-28 27 23 -33z"/>
<path d="M1861 4844 c0 -11 3 -14 6 -6 3 7 2 16 -1 19 -3 4 -6 -2 -5 -13z"/>
<path d="M3830 4742 c0 -5 7 -9 15 -9 8 0 12 4 9 9 -3 4 -9 8 -15 8 -5 0 -9
-4 -9 -8z"/>
<path d="M3878 4743 c7 -3 16 -2 19 1 4 3 -2 6 -13 5 -11 0 -14 -3 -6 -6z"/>
<path d="M3940 3431 c0 -12 9 -20 27 -24 16 -3 31 -3 35 0 16 9 7 31 -14 37
-38 10 -48 7 -48 -13z"/>
<path d="M4077 3425 c-4 -9 -3 -13 3 -10 6 3 10 -1 10 -9 0 -9 -4 -16 -8 -16
-4 0 -8 -11 -7 -25 0 -14 3 -25 8 -25 4 0 27 0 51 0 36 0 45 4 49 21 9 34 -2
47 -46 54 -23 4 -45 12 -48 17 -3 5 -9 2 -12 -7z"/>
<path d="M5732 8625 c3 -13 1 -22 -3 -19 -5 3 -9 -2 -9 -11 0 -10 5 -13 12 -9
6 4 8 3 4 -4 -3 -6 7 -33 23 -59 38 -63 45 -91 31 -141 -9 -34 -8 -46 4 -65
20 -30 22 -74 6 -118 -9 -27 -10 -45 -2 -75 9 -34 10 -36 11 -11 1 16 5 26 10
23 5 -3 11 11 15 32 8 52 8 64 -4 57 -11 -7 -7 24 17 123 9 37 12 79 9 100 -4
20 -7 51 -7 68 1 37 -25 104 -39 104 -6 0 -10 -9 -10 -20 0 -11 -5 -20 -11
-20 -5 0 -7 -4 -4 -10 3 -5 4 -10 1 -10 -10 0 -45 77 -39 84 4 3 1 6 -6 6 -9
0 -12 -9 -9 -25z m75 -457 c-3 -8 -6 -5 -6 6 -1 11 2 17 5 13 3 -3 4 -12 1
-19z"/>
<path d="M5406 8472 c-4 -41 -5 -76 -3 -79 7 -7 20 99 15 128 -2 13 -7 -9 -12
-49z"/>
<path d="M5524 8394 c-18 -14 -18 -14 6 -3 31 14 36 19 24 19 -6 0 -19 -7 -30
-16z"/>
<path d="M5565 8379 c-60 -22 -89 -24 -79 -6 4 6 -6 0 -22 -14 -16 -14 -49
-40 -74 -56 -25 -17 -54 -41 -65 -53 -11 -13 -40 -36 -63 -51 l-44 -28 39 -10
c51 -14 65 -14 99 4 16 8 37 15 47 15 20 0 107 58 107 71 0 4 -17 3 -37 -2
-24 -5 -42 -4 -48 2 -7 7 -7 9 0 7 6 -1 28 14 49 36 22 21 64 49 93 62 29 14
53 29 53 34 0 6 -1 9 -2 9 -2 -1 -25 -10 -53 -20z"/>
<path d="M5379 8345 c-9 -19 -12 -32 -8 -29 13 8 41 64 32 64 -5 -1 -15 -16
-24 -35z"/>
<path d="M5895 8221 c-5 -17 9 -71 19 -71 3 0 3 6 1 13 -10 26 12 36 85 40 73
3 73 4 -11 3 -77 -1 -85 1 -81 17 6 23 -5 22 -13 -2z"/>
<path d="M5209 8203 l-24 -28 28 24 c25 23 32 31 24 31 -2 0 -14 -12 -28 -27z"/>
<path d="M6178 8193 c12 -2 32 -2 45 0 12 2 2 4 -23 4 -25 0 -35 -2 -22 -4z"/>
<path d="M6818 8193 c12 -2 32 -2 45 0 12 2 2 4 -23 4 -25 0 -35 -2 -22 -4z"/>
<path d="M5435 8140 c3 -5 15 -10 25 -10 10 0 32 -11 47 -25 l28 -24 -50 -1
c-34 0 -45 -3 -35 -9 8 -6 18 -7 22 -5 4 3 8 3 8 0 0 -10 -93 -49 -145 -61
l-50 -12 57 -8 c36 -4 69 -3 92 5 36 12 132 65 171 94 l20 15 -20 1 c-11 0
-54 12 -95 25 -85 29 -83 28 -75 15z"/>
<path d="M5265 8114 c100 -57 125 -65 125 -41 0 8 -26 22 -62 32 -90 27 -96
28 -63 9z"/>
<path d="M5862 8105 c0 -16 2 -22 5 -12 2 9 2 23 0 30 -3 6 -5 -1 -5 -18z"/>
<path d="M4690 8054 c-16 -48 -5 -55 14 -9 19 44 19 45 7 45 -5 0 -15 -16 -21
-36z"/>
<path d="M5820 8081 c0 -7 -4 -9 -10 -6 -5 3 -10 2 -10 -3 0 -5 -23 -32 -52
-60 -57 -56 -108 -79 -200 -89 -32 -3 -58 -11 -58 -17 0 -6 -5 -3 -11 7 -11
19 -39 24 -39 6 0 -5 4 -8 10 -4 5 3 18 -3 30 -15 11 -11 28 -20 38 -20 15 -1
15 -1 1 -10 -11 -6 -28 -6 -48 1 -18 6 -35 8 -39 4 -4 -4 -1 -10 6 -12 6 -3
12 -10 12 -16 0 -7 18 -25 40 -41 41 -31 55 -61 23 -49 -17 7 -17 6 0 -20 18
-28 23 -57 8 -57 -5 0 -11 6 -14 13 -2 6 -12 -4 -23 -23 -15 -29 -19 -61 -21
-195 -1 -88 -4 -196 -5 -239 -2 -61 0 -80 11 -84 8 -3 11 0 7 7 -4 6 -3 11 2
11 12 0 33 52 39 95 3 16 11 44 18 62 8 18 10 35 6 38 -10 6 -2 96 10 110 4 6
11 30 15 53 5 31 15 48 40 67 18 14 37 25 42 25 16 0 45 50 30 51 -7 0 9 11
37 25 85 42 169 141 144 170 -7 8 -6 14 1 19 5 3 10 16 9 28 0 15 -2 17 -6 7
-21 -52 -155 -159 -200 -160 -30 0 -8 27 37 48 51 24 131 111 149 164 8 23 7
26 -7 21 -14 -5 -15 -3 -4 8 6 7 12 17 12 22 0 5 -20 -18 -45 -51 -47 -62 -89
-95 -137 -107 -46 -12 -34 20 17 45 60 29 161 157 140 178 -3 3 -5 0 -5 -7z
m-193 -213 c-3 -8 -6 -5 -6 6 -1 11 2 17 5 13 3 -3 4 -12 1 -19z m-70 -103 c0
-8 -4 -15 -9 -15 -4 0 -8 7 -8 15 0 8 4 15 8 15 5 0 9 -7 9 -15z m80 -7 c-3
-8 -6 -5 -6 6 -1 11 2 17 5 13 3 -3 4 -12 1 -19z m-47 2 c0 -5 -5 -10 -11 -10
-5 0 -7 5 -4 10 3 6 8 10 11 10 2 0 4 -4 4 -10z"/>
<path d="M4538 8065 c-14 -23 -20 -83 -8 -90 23 -14 33 12 24 57 -5 24 -12 38
-16 33z"/>
<path d="M5882 8015 c0 -16 2 -22 5 -12 2 9 2 23 0 30 -3 6 -5 -1 -5 -18z"/>
<path d="M5540 7970 l-55 -7 50 -1 c28 0 59 3 70 8 23 10 14 10 -65 0z"/>
<path d="M4300 7911 c0 -6 4 -13 10 -16 6 -3 7 1 4 9 -7 18 -14 21 -14 7z"/>
<path d="M5200 7889 c0 -11 5 -17 10 -14 6 3 10 13 10 21 0 8 -4 14 -10 14 -5
0 -10 -9 -10 -21z"/>
<path d="M4330 7861 c0 -6 4 -13 10 -16 6 -3 7 1 4 9 -7 18 -14 21 -14 7z"/>
<path d="M5078 7753 c7 -3 16 -2 19 1 4 3 -2 6 -13 5 -11 0 -14 -3 -6 -6z"/>
<path d="M4720 7430 c0 -5 5 -10 10 -10 6 0 10 5 10 10 0 6 -4 10 -10 10 -5 0
-10 -4 -10 -10z"/>
<path d="M5586 7371 c-9 -10 -21 -44 -26 -75 -5 -31 -11 -60 -14 -64 -3 -5 -1
-26 4 -47 6 -27 5 -46 -5 -64 -11 -23 -20 -92 -16 -128 2 -26 20 -11 65 56 49
72 49 72 30 164 -4 19 -1 29 10 33 21 8 21 24 0 24 -13 0 -15 7 -11 33 6 37
-1 87 -13 87 -4 0 -14 -8 -24 -19z"/>
<path d="M4398 7225 c-3 -14 -1 -28 3 -31 5 -3 9 9 9 25 0 38 -6 40 -12 6z"/>
<path d="M1928 6907 c-6 -87 61 -200 145 -243 66 -35 237 -51 237 -23 0 5 7 9
15 9 8 0 15 5 15 11 0 6 6 9 13 6 7 -3 30 8 52 24 21 16 35 29 30 29 -5 0 -16
-7 -26 -16 -30 -27 -67 -24 -127 12 -99 57 -138 91 -180 153 -22 33 -42 58
-45 55 -2 -3 -15 0 -28 5 -96 38 -97 38 -101 -22z"/>
<path d="M1085 6629 c-4 -6 -5 -12 -2 -15 2 -3 7 2 10 11 7 17 1 20 -8 4z"/>
<path d="M4822 6490 c-1 -42 2 -58 7 -45 5 11 5 40 1 65 -7 43 -8 43 -8 -20z"/>
<path d="M4851 6430 c0 -36 4 -72 9 -80 12 -18 12 69 0 115 -6 23 -8 16 -9
-35z"/>
<path d="M4886 6368 c1 -48 7 -95 13 -105 15 -26 14 56 -3 132 l-13 60 3 -87z"/>
<path d="M960 6405 c0 -11 11 -15 43 -14 23 1 32 4 20 6 -13 2 -23 9 -23 14 0
5 -9 9 -20 9 -11 0 -20 -7 -20 -15z"/>
<path d="M4819 6348 c-1 -21 -2 -44 -3 -50 -1 -7 5 -12 13 -10 8 2 11 -3 8
-12 -3 -8 0 -22 7 -31 11 -15 13 -14 25 8 12 22 10 30 -18 78 l-31 54 -1 -37z"/>
<path d="M658 6363 c12 -2 32 -2 45 0 12 2 2 4 -23 4 -25 0 -35 -2 -22 -4z"/>
<path d="M978 6353 c12 -2 32 -2 45 0 12 2 2 4 -23 4 -25 0 -35 -2 -22 -4z"/>
<path d="M1137 6354 c-11 -11 -8 -26 3 -19 16 10 12 -11 -5 -25 -8 -7 -15 -17
-15 -23 0 -5 9 2 21 16 14 18 17 32 12 42 -5 9 -12 12 -16 9z"/>
<path d="M0 6300 c0 -11 4 -20 9 -20 5 0 11 9 14 20 3 13 0 20 -9 20 -8 0 -14
-9 -14 -20z"/>
<path d="M418 6313 c12 -2 32 -2 45 0 12 2 2 4 -23 4 -25 0 -35 -2 -22 -4z"/>
<path d="M1153 6299 c-9 -9 -8 -16 3 -27 13 -12 13 -16 2 -23 -9 -6 -6 -8 9
-6 19 1 20 3 7 21 -17 25 -18 40 -2 30 7 -4 8 -3 4 4 -9 15 -9 15 -23 1z"/>
<path d="M1200 6257 c14 -16 34 -33 45 -39 21 -11 20 -10 -35 37 l-35 30 25
-28z"/>
<path d="M1131 6254 c0 -11 3 -14 6 -6 3 7 2 16 -1 19 -3 4 -6 -2 -5 -13z"/>
<path d="M1278 6203 c7 -3 16 -2 19 1 4 3 -2 6 -13 5 -11 0 -14 -3 -6 -6z"/>
<path d="M1637 6190 c-3 -11 -3 -20 -1 -20 2 0 8 9 14 20 6 11 7 20 2 20 -6 0
-12 -9 -15 -20z"/>
<path d="M1335 6189 c29 -7 240 -11 220 -4 -5 2 -64 5 -130 7 -66 3 -106 1
-90 -3z"/>
<path d="M1593 6193 c9 -2 23 -2 30 0 6 3 -1 5 -18 5 -16 0 -22 -2 -12 -5z"/>
<path d="M4741 6164 c0 -11 3 -14 6 -6 3 7 2 16 -1 19 -3 4 -6 -2 -5 -13z"/>
<path d="M4846 6171 c-4 -7 -5 -15 -2 -18 9 -9 19 4 14 18 -4 11 -6 11 -12 0z"/>
<path d="M2179 6123 c-13 -16 -12 -17 4 -4 9 7 17 15 17 17 0 8 -8 3 -21 -13z"/>
<path d="M4731 6116 c-8 -10 -9 -16 -1 -21 5 -3 13 1 16 10 9 22 -1 29 -15 11z"/>
<path d="M4773 6034 c9 -17 23 -37 33 -45 16 -13 16 -12 3 10 -8 14 -22 34
-33 45 -18 21 -18 21 -3 -10z"/>
<path d="M1899 5734 c-13 -15 -18 -25 -10 -22 13 4 49 48 39 48 -2 0 -15 -12
-29 -26z"/>
<path d="M1708 5733 c7 -3 16 -2 19 1 4 3 -2 6 -13 5 -11 0 -14 -3 -6 -6z"/>
<path d="M1915 5709 c-20 -20 -20 -20 5 -11 13 5 26 14 28 20 6 18 -11 13 -33
-9z"/>
<path d="M2427 5691 c3 -14 -2 -21 -19 -27 -12 -4 -27 -7 -33 -5 -5 1 -3 -5 6
-14 8 -9 22 -13 31 -10 18 7 41 53 33 66 -11 16 -23 9 -18 -10z"/>
<path d="M1550 5645 c-13 -14 -21 -27 -18 -30 9 -9 38 6 48 26 16 28 -5 31
-30 4z"/>
<path d="M2094 5641 c3 -17 -1 -30 -16 -43 -19 -16 -19 -18 -3 -24 12 -5 23
-1 31 11 18 24 18 37 -2 61 -15 18 -15 18 -10 -5z"/>
<path d="M1802 5627 c-26 -28 -28 -37 -6 -37 18 0 43 27 44 48 0 19 -14 15
-38 -11z"/>
<path d="M1377 5572 c-19 -20 -23 -37 -7 -27 10 6 33 45 27 45 -2 0 -11 -8
-20 -18z"/>
<path d="M2626 5435 c-3 -9 -6 -26 -5 -38 1 -16 4 -12 10 12 10 34 6 55 -5 26z"/>
<path d="M4356 5437 c-17 -12 -17 -14 -1 -30 21 -21 45 -22 71 -1 10 8 13 13
6 9 -18 -9 -50 3 -54 21 -3 13 -6 13 -22 1z"/>
<path d="M2611 5313 c1 -62 6 -56 11 15 2 23 0 42 -4 42 -5 0 -7 -26 -7 -57z"/>
<path d="M2836 5266 c3 -9 10 -16 16 -16 5 0 6 -5 3 -10 -4 -6 -1 -18 7 -27 7
-9 12 -18 11 -20 -2 -1 -3 -6 -2 -10 0 -5 4 1 8 12 5 13 2 30 -9 49 -17 32
-44 49 -34 22z"/>
<path d="M1803 5216 c-24 -8 -43 -12 -43 -9 0 2 -10 -3 -22 -11 -12 -9 -28
-16 -34 -16 -6 0 -29 -8 -50 -17 -22 -9 -42 -16 -46 -15 -5 1 -8 -3 -8 -9 0
-5 -4 -8 -9 -5 -5 4 -11 2 -13 -3 -1 -5 -36 -25 -76 -45 -51 -26 -80 -35 -95
-30 -12 4 -23 6 -25 5 -2 -1 -11 8 -22 21 -25 32 -30 22 -18 -37 11 -53 15
-80 18 -105 1 -11 4 -9 9 4 5 14 31 26 94 42 48 13 165 53 260 90 233 90 335
124 371 124 18 0 26 4 21 9 -18 17 -265 22 -312 7z"/>
<path d="M1523 5202 c24 -26 16 -39 -30 -48 -29 -5 -39 -3 -50 11 -12 17 -13
17 -13 2 0 -31 43 -41 84 -22 41 20 46 44 14 64 -23 14 -23 14 -5 -7z"/>
<path d="M1472 5198 c-15 -15 -16 -38 -1 -38 5 0 7 5 4 10 -4 6 -1 17 5 25 15
18 9 20 -8 3z"/>
<path d="M4813 5203 c-20 -7 -15 -41 7 -53 14 -7 26 -8 38 -1 15 9 15 10 -4
11 -22 0 -39 24 -28 41 6 10 5 10 -13 2z"/>
<path d="M2556 4460 c-3 -17 -10 -29 -15 -26 -5 3 -23 0 -41 -7 -28 -12 -29
-15 -15 -27 14 -12 21 -11 43 2 36 21 60 64 46 78 -8 8 -13 3 -18 -20z"/>
<path d="M1516 4361 c-4 -6 -3 -18 4 -26 7 -8 7 -15 1 -19 -5 -3 -12 0 -15 6
-7 15 2 -116 11 -149 7 -30 27 -29 52 3 25 32 27 61 5 92 -19 28 -38 28 -52 0
l-11 -23 0 23 c-1 12 3 22 8 22 15 0 22 35 13 60 -6 16 -11 20 -16 11z m31
-141 c-11 -23 -21 -39 -24 -37 -5 6 29 77 38 77 3 0 -3 -18 -14 -40z"/>
<path d="M2870 4329 c0 -5 5 -7 10 -4 6 3 10 8 10 11 0 2 -4 4 -10 4 -5 0 -10
-5 -10 -11z"/>
<path d="M4488 4243 c7 -3 16 -2 19 1 4 3 -2 6 -13 5 -11 0 -14 -3 -6 -6z"/>
<path d="M4650 4111 c0 -9 -10 -11 -32 -6 -39 8 -31 -2 27 -34 29 -17 34 -18
17 -4 -18 14 -20 21 -10 31 6 6 9 15 5 19 -4 3 -7 1 -7 -6z"/>
<path d="M4557 4079 c7 -7 15 -10 18 -7 3 3 -2 9 -12 12 -14 6 -15 5 -6 -5z"/>
<path d="M4620 4036 c0 -16 24 -38 33 -30 8 9 -11 44 -23 44 -6 0 -10 -6 -10
-14z"/>
<path d="M4555 3980 c-20 -38 -19 -52 6 -84 20 -25 59 -36 59 -16 0 6 -8 10
-19 10 -27 0 -43 24 -39 61 4 43 30 59 57 35 11 -10 22 -28 24 -40 4 -18 4
-17 6 5 3 57 -68 80 -94 29z"/>
<path d="M4710 3933 c21 -35 33 -70 41 -128 14 -102 24 -113 15 -16 -6 74 -32
148 -60 176 -27 27 -25 15 4 -32z"/>
<path d="M4767 3936 c-4 -10 -5 -21 -2 -24 9 -9 17 6 13 25 -3 17 -4 17 -11
-1z"/>
<path d="M4632 3872 c-15 -15 -29 -21 -40 -17 -14 5 -15 4 -4 -6 6 -7 12 -30
12 -51 0 -42 4 -45 27 -22 10 10 12 18 6 22 -20 14 -22 51 -3 57 10 3 21 13
24 22 9 23 4 22 -22 -5z"/>
<path d="M3360 3717 c0 -9 -10 -26 -22 -38 -23 -21 -23 -21 -1 -10 22 11 40
47 29 58 -3 4 -6 -1 -6 -10z"/>
<path d="M4779 3687 c-7 -25 -5 -138 3 -143 6 -4 8 2 3 16 -5 15 -4 20 4 16 7
-5 9 -1 5 8 -4 11 0 16 10 16 9 0 16 7 16 15 0 8 -5 15 -11 15 -7 0 -9 9 -5
24 4 16 1 26 -9 30 -8 3 -15 4 -16 3z"/>
<path d="M4753 3640 c0 -25 2 -35 4 -22 2 12 2 32 0 45 -2 12 -4 2 -4 -23z"/>
<path d="M4742 3555 c0 -16 2 -22 5 -12 2 9 2 23 0 30 -3 6 -5 -1 -5 -18z"/>
<path d="M4765 3504 c-4 -10 -11 -30 -16 -43 -11 -27 -6 -36 15 -28 18 7 31
66 17 80 -7 7 -12 5 -16 -9z"/>
<path d="M4618 3453 c7 -3 16 -2 19 1 4 3 -2 6 -13 5 -11 0 -14 -3 -6 -6z"/>
<path d="M4710 3419 c0 -5 5 -7 10 -4 6 3 10 8 10 11 0 2 -4 4 -10 4 -5 0 -10
-5 -10 -11z"/>
<path d="M4720 3353 c0 -4 -9 -19 -20 -33 -11 -14 -18 -17 -14 -8 4 13 1 15
-16 11 -14 -4 -18 -8 -10 -13 9 -5 9 -9 1 -14 -6 -4 -11 -13 -11 -19 0 -8 3
-8 9 2 6 10 13 10 28 3 10 -6 24 -7 31 -3 17 10 26 67 13 75 -6 4 -11 4 -11
-1z"/>
<path d="M4616 3242 c-8 -26 2 -48 15 -35 6 6 6 19 1 34 l-9 24 -7 -23z"/>
<path d="M2260 2893 c1 -20 16 -31 30 -23 13 8 12 10 -3 10 -10 0 -15 5 -12
10 3 6 1 10 -4 10 -6 0 -11 -3 -11 -7z"/>
<path d="M2283 2845 c-3 -9 -3 -19 1 -22 3 -4 6 1 6 10 0 8 6 18 13 20 9 4 9
6 -1 6 -7 1 -15 -6 -19 -14z"/>
<path d="M2310 2619 c0 -5 5 -7 10 -4 6 3 10 8 10 11 0 2 -4 4 -10 4 -5 0 -10
-5 -10 -11z"/>
<path d="M2344 2555 c11 -8 22 -12 25 -9 6 6 -19 24 -34 24 -5 -1 -1 -7 9 -15z"/>
<path d="M3720 2065 c-7 -9 -10 -18 -7 -21 3 -3 10 4 17 15 13 25 8 27 -10 6z"/>
<path d="M1611 1750 c0 -8 4 -22 9 -30 12 -18 12 -2 0 25 -6 13 -9 15 -9 5z"/>
<path d="M2485 1560 c-3 -5 -1 -10 4 -10 6 0 11 5 11 10 0 6 -2 10 -4 10 -3 0
-8 -4 -11 -10z"/>
<path d="M2470 1527 c0 -18 -27 -67 -43 -78 -5 -4 -5 -9 1 -13 20 -12 66 72
51 95 -7 11 -9 11 -9 -4z"/>
<path d="M2250 1468 c-36 -22 -98 -55 -137 -74 -40 -18 -73 -36 -73 -39 0 -15
209 89 253 127 44 37 33 34 -43 -14z"/>
<path d="M1395 985 c-16 -39 -15 -40 6 -57 11 -10 26 -18 33 -18 6 0 3 5 -6
11 -20 11 -24 39 -7 56 8 8 8 17 1 29 -9 16 -12 13 -27 -21z"/>
<path d="M1550 809 c0 -5 5 -7 10 -4 6 3 10 8 10 11 0 2 -4 4 -10 4 -5 0 -10
-5 -10 -11z"/>
<path d="M1740 520 c-11 -7 -5 -8 20 -4 43 8 51 14 19 14 -13 0 -31 -5 -39
-10z"/>
</g>
</svg>
