<?xml version="1.0" standalone="no"?>
<!DOCTYPE svg PUBLIC "-//W3C//DTD SVG 20010904//EN"
 "http://www.w3.org/TR/2001/REC-SVG-20010904/DTD/svg10.dtd">
<svg version="1.0" xmlns="http://www.w3.org/2000/svg"
 width="200.000000pt" height="124.000000pt" viewBox="0 0 200.000000 124.000000"
 preserveAspectRatio="xMidYMid meet">

<g transform="translate(0.000000,124.000000) scale(0.100000,-0.100000)"
fill="#000000" stroke="none">
<path d="M997 1162 c-4 -6 -36 -81 -72 -167 -63 -153 -63 -155 -42 -166 22
-13 56 -49 57 -61 0 -16 -20 -7 -48 22 -17 17 -37 30 -46 30 -9 0 -38 -13 -64
-30 -38 -23 -61 -30 -100 -30 -45 0 -51 3 -55 23 l-4 22 -8 -22 c-5 -15 -15
-23 -30 -23 -32 0 -57 58 -64 145 l-6 70 -24 -49 c-17 -35 -24 -66 -24 -108
l0 -58 -179 0 c-98 0 -178 -3 -178 -8 0 -14 190 -102 220 -102 l29 0 -45 -65
-46 -65 58 0 c32 0 72 5 91 12 30 11 35 10 54 -11 21 -22 47 -35 95 -47 23 -6
25 -5 18 22 -4 16 -12 33 -18 37 -7 5 -3 7 9 5 10 -2 22 -13 25 -26 6 -29 26
-25 22 6 -2 19 2 22 28 22 16 0 30 -2 30 -5 0 -4 -45 -62 -100 -130 -56 -69
-95 -125 -88 -125 7 0 88 7 179 17 l167 17 5 44 c13 115 146 181 238 119 47
-31 79 -83 79 -126 l0 -37 176 -18 c96 -10 177 -16 179 -15 2 2 -33 49 -77
104 -44 55 -89 112 -100 128 l-19 27 31 0 c29 0 32 -2 26 -24 -9 -37 13 -42
25 -7 8 22 17 31 32 31 20 -1 20 -2 5 -11 -10 -5 -18 -21 -18 -35 0 -22 3 -24
28 -18 15 4 42 16 61 27 31 19 35 19 46 4 7 -9 15 -17 18 -17 4 0 34 36 68 80
47 60 68 80 86 80 23 0 152 87 153 103 0 4 -55 7 -123 7 l-123 0 -23 -31 c-18
-24 -25 -28 -37 -18 -8 6 -14 20 -14 30 0 11 -5 18 -11 17 -8 -2 -13 19 -14
62 -1 44 -9 79 -24 108 -23 45 -32 54 -24 23 6 -24 -15 -127 -33 -163 -19 -36
-60 -39 -67 -5 l-4 22 -2 -22 c-1 -21 -6 -23 -58 -23 -48 0 -66 5 -103 30 -25
16 -52 30 -61 30 -22 0 -71 -39 -64 -51 4 -5 -3 -9 -14 -9 -31 0 -26 14 18 52
l39 33 -64 155 c-35 85 -65 159 -67 165 -2 5 -7 4 -10 -3z m-439 -454 c-3 -7
-19 -14 -36 -16 -24 -2 -39 -13 -57 -40 l-25 -37 27 -3 c25 -3 21 -7 -31 -28
-59 -24 -86 -30 -86 -18 0 3 18 31 41 62 l40 57 -68 5 c-37 3 -77 11 -88 17
-16 10 9 12 133 13 119 0 153 -3 150 -12z m226 -3 c-4 -10 -27 -15 -87 -17
-53 -2 -82 -7 -85 -15 -3 -10 15 -13 69 -13 96 0 79 -18 -20 -22 -48 -2 -76
-7 -79 -15 -3 -10 15 -13 68 -13 53 0 71 -3 68 -12 -3 -9 -37 -14 -113 -16
l-108 -3 15 23 c8 13 27 44 44 70 l29 48 102 0 c86 0 101 -2 97 -15z m70 -10
c-9 -14 -13 -25 -10 -25 4 0 29 11 56 25 35 18 65 25 106 25 l56 0 -16 -25
c-20 -31 -20 -31 46 0 29 14 67 25 83 24 27 0 24 -3 -30 -31 -33 -17 -62 -32
-64 -35 -3 -2 9 -18 26 -35 l32 -31 41 66 42 67 105 0 c91 0 104 -2 93 -15 -8
-9 -36 -15 -88 -17 -49 -2 -77 -7 -80 -15 -3 -10 15 -13 68 -13 45 0 69 -4 65
-10 -3 -5 -41 -10 -85 -10 -60 0 -79 -3 -84 -15 -4 -13 7 -15 69 -15 62 0 73
-2 69 -15 -5 -12 -30 -15 -134 -15 -127 0 -127 0 -166 31 l-38 30 -26 -30
c-34 -43 -79 -42 -128 0 l-36 31 -25 -31 c-16 -19 -35 -31 -49 -31 -28 0 -28
0 23 78 33 51 45 62 68 62 27 0 27 0 11 -25z m699 -20 c16 -25 30 -45 32 -45
2 0 18 20 35 45 31 45 31 45 92 45 53 0 59 -2 48 -15 -7 -8 -27 -15 -45 -15
-29 0 -39 -8 -85 -70 -29 -38 -53 -70 -55 -70 -1 0 -22 30 -46 66 l-43 66 -23
-28 c-30 -38 -29 -44 10 -44 l32 -1 -28 -15 c-16 -9 -46 -14 -71 -12 l-42 3
43 68 c41 63 46 67 81 67 33 0 40 -5 65 -45z m-700 -101 c3 -4 2 -15 -4 -25
-7 -14 -20 -19 -52 -18 -23 1 -32 4 -19 6 12 3 28 13 35 24 12 19 28 24 40 13z
m370 -41 c-13 -2 -33 -2 -45 0 -13 2 -3 4 22 4 25 0 35 -2 23 -4z"/>
<path d="M930 677 c-25 -12 -47 -23 -49 -25 -6 -3 41 -37 52 -37 4 0 19 19 33
43 29 48 26 49 -36 19z"/>
<path d="M1344 1110 c21 -79 36 -161 36 -206 0 -29 8 -70 18 -93 l19 -40 17
37 c30 61 32 139 7 198 -25 59 -109 148 -97 104z"/>
<path d="M601 1070 c-40 -51 -61 -102 -61 -151 0 -33 28 -126 40 -134 16 -10
36 56 44 140 3 44 13 105 21 135 18 66 17 60 5 60 -5 0 -27 -23 -49 -50z"/>
<path d="M470 475 c0 -3 7 -19 15 -35 21 -41 59 -49 84 -19 l19 24 -38 7 c-22
4 -48 12 -60 18 -11 6 -20 8 -20 5z"/>
<path d="M1500 463 c-14 -7 -41 -13 -60 -13 l-35 0 27 -26 c30 -30 59 -26 84
11 21 32 15 44 -16 28z"/>
<path d="M870 385 c-19 -49 -12 -61 56 -104 36 -22 70 -41 75 -41 5 0 39 18
74 41 67 42 74 54 55 104 l-10 26 -57 -37 c-62 -40 -66 -39 -150 16 l-33 22
-10 -27z"/>
<path d="M700 284 c-8 -2 -37 -6 -65 -10 -41 -6 -46 -8 -25 -14 37 -9 127 10
109 23 -2 2 -11 2 -19 1z"/>
<path d="M780 259 c43 -37 151 -99 173 -99 30 0 18 16 -24 36 -23 10 -66 35
-96 56 -66 47 -105 52 -53 7z"/>
<path d="M1180 259 c-94 -64 -192 -107 -379 -165 -11 -4 -12 -7 -3 -16 27 -27
333 102 417 176 50 44 27 47 -35 5z"/>
<path d="M1280 279 c0 -13 55 -23 109 -20 40 2 19 10 -47 19 -34 5 -62 5 -62
1z"/>
<path d="M720 244 c-14 -7 -38 -14 -55 -14 -29 -1 -29 -1 -10 -16 24 -19 90
-13 113 9 23 23 -15 40 -48 21z"/>
<path d="M1237 245 c-15 -11 -15 -14 -2 -25 25 -21 99 -25 114 -6 12 14 10 16
-13 16 -15 0 -39 6 -54 14 -22 12 -31 12 -45 1z"/>
<path d="M786 203 c-4 -5 -22 -13 -39 -19 l-32 -12 28 -7 c29 -8 62 -2 87 15
13 9 13 11 0 20 -18 12 -34 13 -44 3z"/>
<path d="M1172 203 c-10 -4 -10 -8 -1 -19 14 -17 72 -29 96 -20 14 6 8 11 -26
27 -45 20 -48 21 -69 12z"/>
<path d="M1032 132 c-16 -11 142 -66 164 -58 24 9 12 17 -69 43 -82 26 -78 25
-95 15z"/>
</g>
</svg>
